<svg width="45" height="45" viewBox="0 0 45 45" fill="none" xmlns="http://www.w3.org/2000/svg">
<circle cx="22.5" cy="22.5" r="22.5" fill="#A1CD49"/>
<path d="M29.7489 22.8732H29.3757V22.5C29.3757 22.1602 29.1002 21.8848 28.7604 21.8848C28.4207 21.8848 28.1452 22.1602 28.1452 22.5V22.8732H27.772C27.4322 22.8732 27.1567 23.1487 27.1567 23.4885C27.1567 23.8283 27.4322 24.1037 27.772 24.1037H28.1452V24.477C28.1452 24.8167 28.4207 25.0922 28.7604 25.0922C29.1002 25.0922 29.3757 24.8167 29.3757 24.477V24.1037H29.7489C30.0887 24.1037 30.3642 23.8283 30.3642 23.4885C30.3642 23.1487 30.0887 22.8732 29.7489 22.8732Z" fill="white"/>
<path d="M15.251 14.2189H15.6242V14.5922C15.6242 14.932 15.8997 15.2074 16.2395 15.2074C16.5792 15.2074 16.8547 14.932 16.8547 14.5922V14.2189H17.2279C17.5677 14.2189 17.8432 13.9435 17.8432 13.6037C17.8432 13.2639 17.5677 12.9885 17.2279 12.9885H16.8547V12.6152C16.8547 12.2755 16.5792 12 16.2395 12C15.8997 12 15.6242 12.2755 15.6242 12.6152V12.9885H15.251C14.9112 12.9885 14.6357 13.2639 14.6357 13.6037C14.6357 13.9435 14.9112 14.2189 15.251 14.2189Z" fill="white"/>
<path d="M17.4069 22.7592C17.6594 22.6826 17.843 22.448 17.843 22.1705C17.843 21.8941 17.6607 21.6603 17.4098 21.5827C16.5205 21.2817 15.812 20.5739 15.5102 19.6849C15.4335 19.4325 15.199 19.2489 14.9215 19.2489C14.6452 19.2489 14.4114 19.4312 14.3337 19.682C14.0328 20.5714 13.325 21.2798 12.4361 21.5816C12.1837 21.6583 12 21.8929 12 22.1705C12 22.4468 12.1823 22.6806 12.4332 22.7583C13.3225 23.0592 14.0309 23.767 14.3328 24.6559C14.4094 24.9083 14.644 25.092 14.9215 25.092C15.1979 25.092 15.4317 24.9096 15.5093 24.6588C15.8103 23.7695 16.518 23.0611 17.4069 22.7592Z" fill="white"/>
<path d="M25.8639 25.3529C25.2604 24.0455 23.9401 23.2008 22.4997 23.2008C21.0599 23.2008 19.7396 24.0455 19.1361 25.3529L18.6086 26.4957H26.3914L25.8639 25.3529Z" fill="white"/>
<path d="M23.1152 22.0099V12.6152C23.1152 12.2755 22.8398 12 22.5 12C22.1602 12 21.8848 12.2755 21.8848 12.6152V22.0099C22.0873 21.9842 22.2925 21.9703 22.4997 21.9703C22.7071 21.9703 22.9125 21.9843 23.1152 22.0099Z" fill="white"/>
<path d="M26.9592 27.7262H18.0407L16.0105 32.125C15.9225 32.3156 15.9378 32.5377 16.0509 32.7144C16.164 32.8912 16.3593 32.9981 16.5691 32.9981H18.0611C18.8803 32.9981 19.6403 32.6719 20.1935 32.1106C21.1533 33.0843 22.3266 32.9981 22.5061 32.9981C22.6796 32.9981 23.8485 33.0825 24.8064 32.1106C25.3597 32.6719 26.1197 32.9981 26.9389 32.9981H28.4308C28.6406 32.9981 28.836 32.8912 28.9491 32.7144C29.0621 32.5377 29.0774 32.3156 28.9895 32.125L26.9592 27.7262Z" fill="white"/>
<path d="M32.5669 14.334C31.6776 14.033 30.9692 13.3252 30.6673 12.4363C30.5907 12.1839 30.3561 12.0003 30.0785 12.0003C29.8022 12.0003 29.5684 12.1826 29.4907 12.4335C29.1898 13.3228 28.482 14.0312 27.5931 14.333C27.3407 14.4097 27.157 14.6443 27.157 14.9218C27.157 15.1981 27.3393 15.4319 27.5902 15.5096C28.4795 15.8105 29.1879 16.5183 29.4898 17.4072C29.5664 17.6597 29.801 17.8433 30.0785 17.8433C30.3549 17.8433 30.5887 17.661 30.6663 17.4102C30.9673 16.5208 31.6751 15.8124 32.564 15.5106C32.8164 15.4339 33.0001 15.1993 33.0001 14.9218C33.0001 14.6454 32.8178 14.4116 32.5669 14.334Z" fill="white"/>
</svg>
