<svg width="45" height="45" viewBox="0 0 45 45" fill="none" xmlns="http://www.w3.org/2000/svg">
<circle cx="22.5" cy="22.5" r="22.5" fill="#EFD31A"/>
<path d="M32.6209 19.4449C32.5844 19.2997 32.488 19.177 32.356 19.1062C32.2244 19.0358 32.0689 19.0239 31.9278 19.0734C30.6905 19.5081 28.7815 19.7878 26.6344 19.7878C26.1124 19.7878 25.6093 19.7679 25.1215 19.7365C24.8693 20.876 24.4663 21.9223 23.9516 22.8438C23.9766 22.8428 24.0005 22.8387 24.0258 22.8387C24.693 22.8387 25.2337 22.783 25.2337 23.2325C25.2337 23.6819 24.6929 24.4664 24.0258 24.4664C23.6371 24.4664 23.295 24.3406 23.0742 24.1485C22.4074 24.9764 21.6284 25.6291 20.7705 26.0608C21.7378 29.3165 23.9991 31.6004 26.6344 31.6004C30.1501 31.6004 33 27.536 33 22.5222C33 21.4407 32.8649 20.4058 32.6209 19.4449ZM29.1712 28.9496C29.1599 28.9975 29.1243 29.0365 29.0776 29.0518C29.0307 29.0675 28.9791 29.0577 28.9415 29.0258C28.4456 28.6092 27.602 28.3323 26.6344 28.3323C25.6667 28.3323 24.8232 28.6092 24.3273 29.0258C24.2897 29.0573 24.238 29.0672 24.1913 29.0518C24.1444 29.0361 24.1089 28.9975 24.0976 28.9496C24.0566 28.775 24.0313 28.5949 24.0313 28.4075C24.0313 26.9699 25.1969 25.8044 26.6345 25.8044C28.0721 25.8044 29.2375 26.9699 29.2375 28.4075C29.2375 28.5949 29.2122 28.775 29.1712 28.9496ZM29.243 24.4663C28.5758 24.4663 28.035 23.6819 28.035 23.2324C28.035 22.783 28.5758 22.8387 29.243 22.8387C29.9101 22.8387 30.4509 23.2031 30.4509 23.6525C30.4508 24.1019 29.9101 24.4663 29.243 24.4663Z" fill="white"/>
<path d="M24.7313 16.8784C24.7313 15.797 24.5962 14.762 24.3522 13.8012C24.3156 13.656 24.2193 13.5332 24.0873 13.4625C24.0094 13.4208 23.9229 13.3996 23.8357 13.3996C23.7762 13.3996 23.7164 13.4094 23.6591 13.4297C22.4218 13.8644 20.5128 14.144 18.3657 14.144C16.2185 14.144 14.3095 13.8644 13.0722 13.4297C13.0152 13.4094 12.9557 13.3996 12.8962 13.3996C12.8091 13.3996 12.7222 13.421 12.6439 13.4628C12.5124 13.5336 12.4157 13.6563 12.379 13.8012C12.135 14.7621 12 15.797 12 16.8784C12 21.8922 14.8499 25.9566 18.3657 25.9566C21.8814 25.9566 24.7313 21.8922 24.7313 16.8784ZM14.5491 18.0067C14.5491 17.5572 15.0899 17.1929 15.7571 17.1929C16.4242 17.1929 16.965 17.9772 16.965 18.4267C16.965 18.8762 16.4242 18.8205 15.7571 18.8205C15.0899 18.8205 14.5491 18.4561 14.5491 18.0067ZM18.3657 24.2403C16.928 24.2403 15.7626 23.0748 15.7626 21.6373C15.7626 21.45 15.7878 21.2698 15.8288 21.0951C15.8401 21.0474 15.8757 21.0087 15.9225 20.9929C15.9693 20.9776 16.0209 20.9875 16.0585 21.0189C16.5544 21.4356 17.398 21.7124 18.3656 21.7124C19.3333 21.7124 20.1768 21.4356 20.6727 21.0189C20.7104 20.9871 20.7619 20.9773 20.8088 20.9929C20.8556 21.0084 20.8911 21.0474 20.9024 21.0951C20.9434 21.2698 20.9687 21.45 20.9687 21.6373C20.9687 23.0748 19.8033 24.2403 18.3657 24.2403ZM19.7663 18.4267C19.7663 17.9772 20.307 17.1929 20.9742 17.1929C21.6414 17.1929 22.1822 17.5572 22.1822 18.0067C22.1822 18.4561 21.6414 18.8205 20.9742 18.8205C20.307 18.8205 19.7663 18.8762 19.7663 18.4267Z" fill="white"/>
<rect width="21" height="21" fill="white" transform="translate(12 12)"/>
</svg>
