<svg width="45" height="45" viewBox="0 0 45 45" fill="none" xmlns="http://www.w3.org/2000/svg">
<circle cx="22.5" cy="22.5" r="22.5" fill="#B856A1"/>
<path d="M22.2683 12C20.1056 12.0046 18.3564 13.7538 18.3518 15.9074C18.3518 15.9892 18.3518 16.08 18.3609 16.1845C18.4518 17.4067 19.106 18.5199 20.1374 19.1878C20.1601 19.2059 20.1828 19.2332 20.201 19.2332H24.3537C24.381 19.2332 24.4173 19.1787 24.4537 19.1514C25.5396 18.4245 26.1893 17.2023 26.1847 15.8983C26.1802 13.7402 24.4264 11.9955 22.2683 12ZM23.5677 18.3245C22.6136 18.6925 21.5322 18.4608 20.8098 17.7339C20.6326 17.5658 20.4872 17.3658 20.3736 17.1478H19.9011C19.6512 17.1478 19.4468 16.9433 19.4468 16.6934C19.4468 16.4435 19.6467 16.2391 19.9011 16.2391H20.0738C20.0602 16.1482 20.0511 16.0573 20.0511 15.9665H19.9011C19.6512 15.9665 19.4468 15.762 19.4468 15.5121C19.4468 15.2622 19.6512 15.0578 19.9011 15.0578H20.1919C20.201 15.0305 20.2101 15.0078 20.2192 14.9805C20.7371 13.6493 22.2365 12.9859 23.5677 13.5039C23.7994 13.5948 23.9176 13.8583 23.8267 14.09C23.7358 14.3217 23.4723 14.4399 23.2406 14.349C22.6227 14.1082 21.9184 14.2536 21.4505 14.7215C21.346 14.826 21.2596 14.9669 21.1869 15.0578H23.2133C23.4632 15.0578 23.6677 15.2622 23.6677 15.5121C23.6677 15.762 23.4632 15.9665 23.2133 15.9665H20.9598C20.9643 16.0573 20.9779 16.1482 20.9961 16.2391H22.9816C23.2315 16.2391 23.4359 16.4435 23.4359 16.6934C23.4359 16.9433 23.2315 17.1478 22.9816 17.1478H21.5186C21.9866 17.6021 22.6499 17.6975 23.2406 17.4703C23.4723 17.384 23.7358 17.5021 23.8267 17.7339C23.9221 17.9701 23.804 18.2336 23.5677 18.3245Z" fill="white"/>
<path d="M29.6742 24.0129V23.6994C29.6287 23.0633 29.4379 22.3682 29.1063 21.6821L28.7837 21.0596C28.1885 20.0783 27.3252 19.2241 26.2757 18.588C26.1257 18.8243 25.9485 19.0423 25.7486 19.2377H26.2211C26.471 19.2377 26.6755 19.4422 26.6755 19.6921C26.6755 19.9419 26.471 20.1464 26.2211 20.1464H18.3473C18.0974 20.1464 17.893 19.9419 17.893 19.6921C17.893 19.4422 18.0974 19.2377 18.3473 19.2377H18.7789C18.0747 18.5062 17.6204 17.5703 17.4841 16.5616C16.8389 16.3526 16.489 16.3208 16.3073 16.3253C16.3028 16.3253 16.2937 16.3253 16.2891 16.3253C16.28 16.498 16.3482 17.1295 16.3891 17.4794L16.5072 18.5698C16.5118 18.588 16.5118 18.6016 16.5118 18.6198C16.5163 18.7652 16.4618 18.906 16.3573 19.0105C16.3436 19.0242 16.33 19.0333 16.3164 19.0469C15.4213 19.7375 14.7307 20.5644 14.2673 21.4913C14.2446 21.5367 14.2173 21.5731 14.181 21.6094C14.0946 21.7048 13.981 21.7639 13.8584 21.7866L12.3908 22.0819C12.1591 22.1274 11.9955 22.3318 12.0001 22.5635V25.4941C12.0001 25.7258 12.1637 25.9302 12.3908 25.9757L13.8538 26.271C13.9765 26.2937 14.0901 26.3528 14.1764 26.4482C14.2128 26.4845 14.24 26.5254 14.2627 26.5709C14.5399 27.1433 14.8988 27.6749 15.3259 28.1429C15.3804 28.202 15.4168 28.2747 15.435 28.3565C15.4713 28.4882 15.4531 28.6291 15.385 28.7426C14.9533 29.6195 15.1851 30.6782 15.9393 31.2961C16.4118 31.6732 17.0115 31.8686 17.6158 31.8368C18.2337 31.8095 18.8198 31.5687 19.2742 31.1461L19.7194 30.7236C19.8239 30.6236 19.9602 30.5691 20.1056 30.5737C20.1329 30.5737 20.1556 30.5737 20.1829 30.5782C21.3687 30.7781 22.5773 30.7418 23.745 30.4646C23.7813 30.4555 23.8131 30.451 23.8495 30.451C23.9903 30.4464 24.1312 30.501 24.2357 30.6009L24.8263 31.1643C25.2806 31.5914 25.8804 31.8231 26.5028 31.8186H26.5892C27.248 31.8186 27.8568 31.5278 28.3066 31.0598C29.0154 30.3101 29.0517 29.147 28.3929 28.2883C28.3748 28.2656 28.3611 28.2429 28.3475 28.2156C28.2066 27.9339 28.3248 27.7249 28.402 27.634C29.2335 26.5572 29.6742 25.3078 29.6742 24.0129ZM17.3841 24.0629C16.7435 24.0629 16.221 23.5449 16.221 22.8997C16.221 22.2591 16.7389 21.7366 17.3841 21.7366C18.0293 21.7366 18.5518 22.2591 18.5472 22.8997C18.5472 23.5404 18.0247 24.0629 17.3841 24.0629Z" fill="white"/>
<path d="M32.1686 16.816C31.9914 16.6388 31.7051 16.6388 31.5279 16.816C31.3507 16.9932 31.3507 17.2794 31.5279 17.4566C32.264 18.2108 32.2549 19.4194 31.5007 20.1555C30.7601 20.8824 29.5697 20.8824 28.8291 20.1555C28.82 20.1464 28.8155 20.1418 28.8064 20.1373L29.597 21.5685C29.7878 21.6094 29.9832 21.6275 30.1831 21.6275C31.7369 21.6275 33 20.369 33 18.8106C32.9955 18.0655 32.7001 17.3476 32.1686 16.816Z" fill="white"/>
</svg>
