<svg width="45" height="45" viewBox="0 0 45 45" fill="none" xmlns="http://www.w3.org/2000/svg">
<circle cx="22.5" cy="22.5" r="22.5" fill="#EC468B"/>
<path d="M21.8402 33V32.9884V30.2362C21.4834 30.4 21.0926 30.4868 20.6953 30.4868C20.3218 30.4868 19.9593 30.4128 19.6181 30.2671C19.2888 30.1264 18.9939 29.9253 18.7416 29.6696C18.222 29.1427 17.9414 28.4447 17.9517 27.7042C17.9616 26.9878 18.248 26.3127 18.7582 25.8032C19.2683 25.2937 19.9438 25.0082 20.6603 24.9992C20.672 24.999 20.6836 24.999 20.6953 24.999C21.0926 24.999 21.4834 25.0858 21.8403 25.2495L21.8429 22.509H18.5603C18.6398 22.3701 18.7573 22.1971 18.8922 22.0002C19.1531 21.6194 19.3474 21.1789 19.3411 20.68C19.327 19.5549 18.4092 18.6359 17.2841 18.6203C17.2743 18.6202 17.2643 18.6201 17.2545 18.6201C16.102 18.62 15.1678 19.5543 15.1678 20.7069C15.1678 21.1946 15.3591 21.6256 15.6156 21.9986C15.7403 22.1799 15.8692 22.37 15.9488 22.509H12.8852C12.4013 22.509 12.009 22.9012 12.009 23.3851V32.1238C12.009 32.6077 12.4013 33 12.8852 33L21.8402 33Z" fill="white"/>
<path d="M30.2388 23.1481C30.4026 23.505 30.4894 23.8958 30.4894 24.2931C30.4894 25.026 30.204 25.7151 29.6858 26.2333C29.1675 26.7516 28.4785 27.0369 27.7455 27.0369C27.7328 27.0369 27.7197 27.0368 27.7068 27.0367C26.9904 27.0267 26.3154 26.7403 25.8058 26.2302C25.2964 25.72 25.0108 25.0445 25.0018 24.3281C24.9967 23.9183 25.0835 23.5153 25.252 23.1481H23.1571H22.8285H22.4969L22.4973 26.4371C22.3813 26.3707 22.1664 26.226 21.9686 26.0897C21.6023 25.837 21.1746 25.6561 20.6952 25.6561C20.6862 25.6561 20.6774 25.6562 20.6684 25.6563C19.5432 25.6704 18.6242 26.5882 18.6086 27.7133C18.6033 28.0988 18.7025 28.4607 18.8797 28.7724C19.2385 29.4038 19.9171 29.8297 20.6952 29.8297C21.1746 29.8297 21.5925 29.6341 21.9686 29.3961C22.2002 29.2496 22.3812 29.1151 22.4973 29.0487V29.0641V32.9884H22.4999H22.8285H23.157H32.1121C32.596 32.9884 32.9883 32.5961 32.9883 32.1123V23.1481H30.2388Z" fill="white"/>
<path d="M32.1149 12H22.5V16.0251C22.5 16.0251 22.8524 15.72 22.965 15.6401C23.3266 15.3395 23.7912 15.1587 24.2981 15.1587C25.4605 15.1587 26.4008 16.109 26.3847 17.2751C26.3692 18.4002 25.4501 19.318 24.325 19.3321C24.316 19.3322 24.3071 19.3323 24.2981 19.3323C23.7911 19.3323 23.3265 19.1514 22.965 18.8508C22.8523 18.7709 22.5 18.4659 22.5 18.4659V22.491H23.1571H26.4398C26.4094 22.5532 26.2334 22.82 26.0896 23.0231C25.8285 23.3919 25.6528 23.8317 25.6589 24.3199C25.673 25.445 26.5908 26.3641 27.7159 26.3797C27.7258 26.3798 27.7357 26.3799 27.7456 26.3799C28.2852 26.3799 28.7769 26.1751 29.1474 25.839C29.5681 25.4572 29.8323 24.906 29.8323 24.2931C29.8323 23.8149 29.6521 23.3883 29.4008 23.0223C29.2407 22.7892 29.1198 22.6102 29.055 22.4974C29.0537 22.4952 29.0526 22.4932 29.0513 22.491H32.9311H32.991V22.1182V12.8761C32.991 12.3923 32.5987 12 32.1149 12Z" fill="white"/>
</svg>
