<svg width="45" height="45" viewBox="0 0 45 45" fill="none" xmlns="http://www.w3.org/2000/svg">
<circle cx="22.5" cy="22.5" r="22.5" fill="#67BF6B"/>
<path d="M32.9638 12.295C32.8902 12.1165 32.7156 12 32.5228 12C13.9998 12 12 19.6765 12 22.9773C12 24.1647 12.2635 25.2739 12.7837 26.2733C12.8639 26.4279 13.0223 26.5263 13.1961 26.5301C13.3602 26.5253 13.533 26.4433 13.6199 26.2915C14.8704 24.1304 18.4117 18.7964 24.2602 15.9623C24.4998 15.8478 24.7862 15.9461 24.8998 16.1819C25.0143 16.4196 24.915 16.7059 24.6783 16.8205C24.2373 17.0343 23.8135 17.2672 23.3983 17.5087C23.2398 17.6013 23.0861 17.6996 22.9306 17.796C22.6967 17.9411 22.4657 18.089 22.2404 18.2418C22.0161 18.3926 21.7946 18.5473 21.577 18.7057C21.5092 18.7553 21.4443 18.8059 21.3775 18.8565C15.5566 23.194 12 30.1135 12 32.5228C12 32.7862 12.2138 33 12.4773 33C12.7407 33 12.9546 32.7862 12.9546 32.5228C12.9546 31.7534 13.4786 30.1937 14.4704 28.3333C15.9099 29.5102 17.8466 30.1364 20.1137 30.1364C26.2428 30.1364 27.5267 24.3041 28.2158 21.1704C29.1437 16.9532 31.1854 14.4895 32.8597 12.8143C32.9972 12.6777 33.0373 12.4734 32.9638 12.295Z" fill="white"/>
<rect width="21" height="21" fill="white" transform="translate(12 12)"/>
</svg>
