<svg width="45" height="45" viewBox="0 0 45 45" fill="none" xmlns="http://www.w3.org/2000/svg">
<circle cx="22.5" cy="22.5" r="22.5" fill="#27BEB6"/>
<path d="M22.494 14.7427C17.9167 10.7391 12.0966 14.2568 12.0012 19.0255C11.9769 20.2408 12.3277 21.4246 13.026 22.516H17.5523L18.3574 21.1742C18.5912 20.7846 19.1569 20.772 19.4039 21.1604L21.1025 23.8296L23.5786 18.6026C23.7945 18.1465 24.438 18.132 24.6762 18.5743L26.7987 22.516H31.962C35.787 16.538 28.2277 9.72787 22.494 14.7427Z" fill="white"/>
<path d="M25.8894 23.4229L24.1695 20.2289L21.7374 25.3632C21.5305 25.8 20.9219 25.838 20.6624 25.4301L18.9001 22.6609L18.428 23.4478C18.3168 23.6331 18.1166 23.7465 17.9005 23.7465H13.999C14.1213 23.8745 13.4695 23.224 22.0599 31.7699C22.2999 32.0086 22.6877 32.0087 22.9277 31.7699C31.3859 23.3554 30.8666 23.8742 30.9886 23.7465H26.4311C26.2047 23.7465 25.9967 23.6222 25.8894 23.4229Z" fill="white"/>
</svg>
