<svg width="45" height="45" viewBox="0 0 45 45" fill="none" xmlns="http://www.w3.org/2000/svg">
<circle cx="22.5" cy="22.5" r="22.5" fill="#EF4924"/>
<path d="M32.8208 21.5558L29.4151 18.1507V15.9275C29.4151 15.5888 29.1408 15.3145 28.8023 15.3145C28.4627 15.3145 28.1884 15.5888 28.1884 15.9275V16.9249L25.9399 14.6755C25.6993 14.4361 25.3125 14.4361 25.0734 14.6755L22.3752 17.3734L21.2982 16.2967C21.0591 16.0572 20.6706 16.0572 20.4314 16.2967L12.1798 24.5486C11.9404 24.7883 11.9404 25.1759 12.1798 25.4151C12.419 25.6548 12.8072 25.6548 13.0466 25.4151L20.8656 17.5958L28.6846 25.4151C28.8038 25.5341 28.9613 25.5952 29.1181 25.5952C29.2744 25.5952 29.4318 25.5352 29.5511 25.4151C29.7905 25.1754 29.7905 24.7877 29.5511 24.5486L25.4312 20.429V17.7121C25.4312 17.3734 25.1563 17.0987 24.8179 17.0987C24.4794 17.0987 24.2045 17.3734 24.2045 17.7121V19.2035L23.2417 18.2405L25.5066 15.9761L31.9537 22.4229C32.073 22.5419 32.2307 22.6024 32.387 22.6024C32.5435 22.6024 32.701 22.5425 32.8208 22.4229C33.0597 22.1835 33.0597 21.7956 32.8208 21.5558Z" fill="white"/>
<path d="M27.7974 25.2529L21.2987 18.753C21.1836 18.6382 21.0277 18.5735 20.8655 18.5735C20.703 18.5735 20.547 18.6382 20.4319 18.753L13.9327 25.2529C13.8459 25.3391 13.7875 25.4494 13.7642 25.5695C13.746 25.6629 13.7371 25.7577 13.7371 25.8504V29.0227C13.7371 29.8394 14.4017 30.5043 15.2187 30.5043H18.3903C18.8009 30.5043 19.1972 30.3308 19.4772 30.0281C19.7318 29.7526 19.872 29.396 19.872 29.0224V26.6931C19.872 26.1277 20.3052 25.6557 20.8649 25.6023C21.4245 25.6557 21.8581 26.128 21.8581 26.6931V29.0224C21.8581 29.396 21.9982 29.7526 22.2529 30.0281C22.5326 30.3305 22.9288 30.504 23.34 30.504H26.5126C27.3296 30.504 27.9942 29.8394 27.9942 29.0224V25.8507C27.9942 25.7577 27.9855 25.6626 27.9668 25.5695C27.9423 25.4494 27.8842 25.3391 27.7974 25.2529Z" fill="white"/>
</svg>
