<svg width="50" height="50" viewBox="0 0 50 50" fill="none" xmlns="http://www.w3.org/2000/svg">
<path d="M25 16.5156C23.8369 16.5156 22.8906 17.4619 22.8906 18.625C22.8906 19.7881 23.8369 20.7344 25 20.7344C26.1631 20.7344 27.1094 19.7881 27.1094 18.625C27.1094 17.4619 26.1631 16.5156 25 16.5156Z" fill="white"/>
<path d="M25 13C21.8984 13 19.375 15.5234 19.375 18.625C19.375 19.6887 19.6736 20.7249 20.2389 21.6215L25 29.2188L29.7611 21.6215C30.3264 20.7249 30.625 19.6887 30.625 18.625C30.625 15.5234 28.1016 13 25 13ZM25 22.1406C23.0616 22.1406 21.4844 20.5634 21.4844 18.625C21.4844 16.6866 23.0616 15.1094 25 15.1094C26.9384 15.1094 28.5156 16.6866 28.5156 18.625C28.5156 20.5634 26.9384 22.1406 25 22.1406Z" fill="white"/>
<path d="M21.5781 37H28.4199L27.8792 32.7344H22.1053L21.5781 37Z" fill="white"/>
<path d="M22.2812 31.3282H24.6678L22.6762 28.1694L22.2812 31.3282Z" fill="white"/>
<path d="M29.1172 31.3281H34.6567L32.8989 27.1094H28.5762L29.1172 31.3281Z" fill="white"/>
<path d="M15.3438 31.3281H20.864L21.3914 27.1094H17.1016L15.3438 31.3281Z" fill="white"/>
<path d="M25.332 31.3282H27.6981L27.2984 28.21L25.332 31.3282Z" fill="white"/>
<path d="M20.688 32.7344H14.7576L13 37H20.1609L20.688 32.7344Z" fill="white"/>
<path d="M35.2421 32.7344H29.2969L29.8378 37H36.9998L35.2421 32.7344Z" fill="white"/>
</svg>
