<svg width="45" height="45" viewBox="0 0 45 45" fill="none" xmlns="http://www.w3.org/2000/svg">
<circle cx="22.5" cy="22.5" r="22.5" fill="#915BA6"/>
<path d="M26.2427 25.9724C27.2543 24.5662 27.8762 22.9503 28.0703 21.2447L22.4496 19.6464L16.8289 21.2447C17.023 22.9502 17.6449 24.5662 18.6565 25.9724C19.6415 27.3415 20.9487 28.443 22.4496 29.1716C23.9505 28.443 25.2577 27.3415 26.2427 25.9724Z" fill="white"/>
<path d="M22.4497 18.3423L28.1363 19.9593V17.3511L22.4497 15.734L16.7632 17.3511V19.9593L22.4497 18.3423Z" fill="white"/>
<path d="M23.0769 12V14.6082L29.3906 16.4036V20.084C29.3906 22.4789 28.6543 24.7684 27.2611 26.705C26.1719 28.2188 24.7314 29.4415 23.0769 30.2609V33C25.5752 32.0265 27.7193 30.364 29.2976 28.1701C30.9997 25.8041 31.8994 23.0079 31.8994 20.084V14.5088L23.0769 12Z" fill="white"/>
<path d="M21.8225 30.2608C20.168 29.4415 18.7274 28.2188 17.6384 26.705C16.2452 24.7684 15.5088 22.4789 15.5088 20.084V16.4036L21.8225 14.6082V12L13 14.5088V20.084C13 23.0079 13.8997 25.804 15.6018 28.17C17.1801 30.364 19.3243 32.0265 21.8225 33V30.2608Z" fill="white"/>
</svg>
