<svg width="45" height="45" viewBox="0 0 45 45" fill="none" xmlns="http://www.w3.org/2000/svg">
<circle cx="22.5" cy="22.5" r="22.5" fill="#518BC9"/>
<path d="M23.1457 28.9837C23.0348 29.0907 22.8495 29.0114 22.8495 28.8574V23.2C22.8495 23.0067 23.0062 22.85 23.1995 22.85H25.5714C25.776 22.85 25.9368 23.0248 25.9205 23.2287C25.7398 25.483 24.7125 27.4731 23.1457 28.9837ZM21.7995 22.85H19.442C19.2339 22.85 19.0712 23.0306 19.0937 23.2374C19.3572 25.6645 20.7491 27.6307 21.8457 28.8343C21.9531 28.9522 22.1495 28.8754 22.1495 28.7159V23.2C22.1495 23.0067 21.9928 22.85 21.7995 22.85ZM19.426 22.15H21.7995C21.9928 22.15 22.1495 21.9933 22.1495 21.8V16.1678C22.1495 16.0132 21.9635 15.9344 21.8526 16.042C20.2333 17.6145 19.249 19.6031 19.0768 21.7721C19.0606 21.9757 19.2217 22.15 19.426 22.15ZM31.295 12.0001C29.9851 12.0149 29.1933 13.4654 29.8858 14.5747L27.263 17.1979C26.3872 16.41 25.3166 15.836 24.1327 15.5577C23.9634 15.5179 23.8444 15.7209 23.9638 15.8474C25.0379 16.9851 26.4317 18.9844 26.6259 21.8266C26.6384 22.0091 26.7919 22.15 26.9749 22.15H29.2444C29.4512 22.15 29.6141 21.9714 29.593 21.7656C29.4326 20.2039 28.7658 18.7897 27.76 17.6906L30.3719 15.0791C31.4804 15.8325 32.9994 15.0363 32.9995 13.6845C32.9996 12.7528 32.2266 11.9896 31.295 12.0001ZM22.8495 16.1412V21.8C22.8495 21.9933 23.0062 22.15 23.1995 22.15H25.5714C25.7761 22.15 25.9369 21.9752 25.9206 21.7713C25.7396 19.5089 24.7072 17.5208 23.1466 16.0158C23.0353 15.9084 22.8495 15.9865 22.8495 16.1412ZM30.3719 29.9209L27.7596 27.309C28.7657 26.2098 29.4326 24.796 29.593 23.2344C29.6141 23.0286 29.4512 22.85 29.2444 22.85H26.9749C26.7919 22.85 26.6384 22.9909 26.6259 23.1734C26.4313 26.0164 25.0366 28.0153 23.9621 29.1531C23.8427 29.2795 23.9617 29.4825 24.131 29.4427C25.3153 29.1644 26.3872 28.59 27.263 27.8021L29.8858 30.4253C29.1911 31.538 29.9889 32.9882 31.2992 32.9999C32.2292 33.0082 32.9996 32.2455 32.9995 31.3155C32.9994 29.9641 31.4809 29.1671 30.3719 29.9209ZM20.9 15.5503C19.682 15.8303 18.5826 16.4231 17.6905 17.2399L15.0787 14.6276C15.8321 13.5191 15.0358 12.0001 13.684 12C12.7523 12 11.9891 12.7729 11.9996 13.7045C12.0144 15.0144 13.465 15.8062 14.5742 15.1137L17.1975 17.7369C16.2146 18.8293 15.5643 20.2257 15.4061 21.7658C15.385 21.9715 15.5479 22.15 15.7547 22.15H18.022C18.2054 22.15 18.3586 22.0084 18.3709 21.8255C18.5256 19.5292 19.5156 17.4705 21.0676 15.8404C21.1875 15.7144 21.0693 15.5109 20.9 15.5503ZM21.2325 29.1986C20.0619 27.8862 18.6199 25.7763 18.3829 23.1663C18.3666 22.9868 18.215 22.85 18.0347 22.85H15.7546C15.5478 22.85 15.3849 23.0286 15.406 23.2344C15.5665 24.7964 16.2333 26.2102 17.2395 27.309L14.6272 29.9209C13.5186 29.1674 11.9996 29.9637 11.9995 31.3155C11.9995 32.2473 12.7725 33.0104 13.7041 32.9999C15.014 32.9851 15.8057 31.5345 15.1132 30.4253L17.7365 27.8021C18.6609 28.6342 19.8037 29.2279 21.0667 29.4864C21.2312 29.5201 21.3441 29.3241 21.2325 29.1986Z" fill="white"/>
<rect width="21" height="21" fill="white" transform="translate(12 12)"/>
</svg>
