<svg width="45" height="45" viewBox="0 0 45 45" fill="none" xmlns="http://www.w3.org/2000/svg">
<circle cx="22.5" cy="22.5" r="22.5" fill="#F4AE1A"/>
<path d="M25.399 20.6039C26.2972 21.3658 26.4114 21.4717 26.8067 21.8121C27.0963 21.5637 27.3448 21.3377 28.3982 20.4543C30.3316 18.8309 31.7285 17.6587 31.7285 15.9272C31.7285 14.2857 30.5227 13 28.9834 13C27.9494 13 27.2633 13.5834 26.8325 14.1776C26.4246 13.5816 25.7613 13 24.7243 13C23.185 13 21.9797 14.2858 21.9797 15.9272C21.9797 17.7026 23.34 18.8567 25.399 20.6039Z" fill="white"/>
<path d="M15.5192 30.7188C17.1311 29.6237 18.8948 29.2052 20.8143 29.5252L23.8905 30.0543C25.0718 30.2512 26.1545 30.1897 27.0897 29.882C29.0243 29.2373 30.961 27.2066 31.4743 26.4367C32.188 25.3662 32.5801 24.1973 32.8262 23.6313C33.06 23.0899 33.06 22.7084 32.8139 22.487C32.5309 22.2285 32.051 22.3639 31.6941 22.5608C31.1282 22.8807 30.5268 23.8036 29.9116 24.6895C29.1118 25.8461 27.7419 26.5352 26.3391 26.5352H21.8848V25.3047H23.7305C27.0035 25.3047 28.4678 24.6895 28.4678 24.0742C28.4678 23.5575 27.4465 23.3236 27.102 23.2498C25.7608 22.9422 22.7338 22.7946 20.6666 21.8717C20.2939 21.7086 19.8712 21.6171 19.424 21.6133C18.7227 21.6073 17.9605 21.8258 17.2336 22.3885C17.2214 22.3885 17.2214 22.3885 17.209 22.4008C16.7291 22.7699 16.0729 23.3113 15.187 24.0865C14.4363 24.7509 13.7104 25.6 12.443 26.6828L12 27.0643L15.027 31.051L15.5192 30.7188Z" fill="white"/>
</svg>
