<svg width="45" height="45" viewBox="0 0 45 45" fill="none" xmlns="http://www.w3.org/2000/svg">
<circle cx="22.5" cy="22.5" r="22.5" fill="#F36B28"/>
<path d="M32.3861 16.3557L32.3329 16.3025C31.8327 15.8022 31.0174 15.8011 30.5141 16.3039L28.5562 18.2825C28.4531 18.3859 28.2881 18.3901 28.1805 18.2911L25.4354 15.7568C25.1688 15.5104 24.8219 15.375 24.4585 15.375H20.3751C20.2787 15.375 20.1865 15.4118 20.1167 15.4778L16.6558 18.7639C16.1487 19.2713 16.1139 20.0892 16.5785 20.5872C16.8268 20.8535 17.1621 21.0001 17.5224 21.0001H17.5288C17.8862 20.9982 18.2297 20.8464 18.4671 20.5868L20.9114 18H21.7863L16.082 24.3752H12.5637C11.7297 24.3752 11.0438 24.9989 11.0022 25.795C10.9801 26.2109 11.1256 26.6061 11.4117 26.9076C11.6937 27.205 12.0901 27.3753 12.5 27.3753H17.7501C17.8536 27.3753 17.9526 27.3325 18.0238 27.2564L20.7137 24.385L22.9758 26.7505L22.2929 31.1148C22.1207 31.8378 22.4676 32.5743 23.1175 32.8649C23.3178 32.9549 23.5304 32.9999 23.7419 32.9999C23.9695 32.9999 24.196 32.9478 24.4045 32.8447C24.8073 32.6452 25.0968 32.2803 25.2022 31.8265L26.3688 25.5688C26.3913 25.4473 26.3527 25.322 26.265 25.2347L23.1513 22.1251L25.6248 19.6554L27.3491 21.3792C27.8306 21.8608 28.6699 21.8608 29.151 21.3792L32.3862 18.1444C32.6251 17.9056 32.7568 17.5876 32.7568 17.25C32.7567 16.9122 32.625 16.5946 32.3861 16.3557Z" fill="white"/>
<path d="M28.2501 16.5001C29.491 16.5001 30.5001 15.491 30.5001 14.2501C30.5001 13.0091 29.491 12 28.2501 12C27.0092 12 26 13.0091 26 14.2501C26 15.491 27.0092 16.5001 28.2501 16.5001Z" fill="white"/>
</svg>
