<svg width="45" height="45" viewBox="0 0 45 45" fill="none" xmlns="http://www.w3.org/2000/svg">
<circle cx="22.5" cy="22.5" r="22.5" fill="#EE2F44"/>
<path d="M31.4171 19.7806L29.9443 14.8713C29.6085 13.7517 28.5979 13 27.4296 13H17.5704C16.4021 13 15.3915 13.7517 15.0557 14.8713L13.5829 19.7806C12.6529 20.1848 12 21.1103 12 22.1875V27.4375C12 28.1623 12.5877 28.75 13.3125 28.75H13.3126L13.3125 30.0624C13.3125 30.7873 13.9001 31.375 14.625 31.375H15.9376C16.6624 31.375 17.2501 30.7873 17.2501 30.0625L17.2495 28.75H27.75L27.7499 30.0624C27.7499 30.7873 28.3375 31.375 29.0624 31.375H30.375C31.0999 31.375 31.6875 30.7873 31.6875 30.0625V28.7501L31.687 28.75H31.6875C32.4123 28.75 33 28.1623 33 27.4375V22.1875C33 21.1103 32.3471 20.1848 31.4171 19.7806L31.4171 19.7806ZM17.5704 15.625H27.4295L28.6108 19.5625H16.3891L17.5704 15.625H17.5704ZM17.25 25.4688C16.5251 25.4688 15.9375 24.8811 15.9375 24.1562C15.9375 23.4313 16.5251 22.8438 17.25 22.8438C17.9749 22.8438 18.5625 23.4313 18.5625 24.1562C18.5625 24.8811 17.9749 25.4688 17.25 25.4688ZM27.75 25.4688C27.0251 25.4688 26.4375 24.8811 26.4375 24.1562C26.4375 23.4313 27.0251 22.8438 27.75 22.8438C28.4749 22.8438 29.0625 23.4313 29.0625 24.1562C29.0625 24.8811 28.4749 25.4688 27.75 25.4688Z" fill="white"/>
</svg>
