<svg width="118" height="138" viewBox="0 0 118 138" fill="none" xmlns="http://www.w3.org/2000/svg">
<g clip-path="url(#clip0_469_5049)">
<path d="M58.9988 56.5465C66.4859 56.5465 72.5555 50.4779 72.5555 42.9919C72.5555 35.506 66.4859 29.4374 58.9988 29.4374C51.5116 29.4374 45.442 35.506 45.442 42.9919C45.442 50.4779 51.5116 56.5465 58.9988 56.5465Z" fill="white"/>
<path d="M102 46.6636H101.986V46.5959L101.956 46.6636C99.8593 46.6628 97.8162 47.3276 96.1214 48.5622C94.4266 49.7968 93.1675 51.5375 92.5256 53.5334C90.7873 58.9087 87.7972 63.7946 83.8016 67.7889C79.8059 71.7832 74.9187 74.7719 69.5422 76.5091C67.5447 77.1539 65.8033 78.4157 64.5686 80.113C63.3339 81.8102 62.6696 83.8553 62.6713 85.9541L62.5778 85.9998H91.9563C94.6169 85.9998 97.1685 84.9431 99.0498 83.0621C100.931 81.1811 101.988 78.6299 101.988 75.9697V46.785L102 46.6636Z" fill="white"/>
<path d="M65.8719 7.89279C72.6636 9.30716 78.8946 12.6733 83.8001 17.578C88.7057 22.4828 92.0723 28.7127 93.4869 35.5034C93.6699 36.4051 94.1586 37.2161 94.8705 37.7991C95.5824 38.3822 96.4738 38.7016 97.3941 38.7035C97.9861 38.7045 98.5708 38.5736 99.1057 38.3202C99.6407 38.0668 100.112 37.6973 100.486 37.2386C100.861 36.78 101.128 36.2436 101.268 35.6687C101.409 35.0938 101.419 34.4948 101.299 33.9153C99.5769 25.5897 95.4553 17.9501 89.4427 11.9384C83.43 5.92667 75.7891 1.80573 67.4622 0.083652C66.8831 -0.0366945 66.2845 -0.0265031 65.7098 0.113485C65.1351 0.253474 64.5989 0.519741 64.14 0.892928C63.6812 1.26611 63.3113 1.73684 63.0572 2.27089C62.8032 2.80493 62.6713 3.38888 62.6713 3.98026C62.6717 4.9014 62.9906 5.79408 63.5738 6.50711C64.1571 7.22013 64.969 7.70966 65.8719 7.89279Z" fill="white"/>
<path d="M49.9222 0.0796989C41.5953 1.80178 33.9544 5.92272 27.9418 11.9344C21.9291 17.9461 17.8075 25.5857 16.0851 33.9113C15.9648 34.4903 15.975 35.0889 16.115 35.6635C16.255 36.238 16.5213 36.7742 16.8945 37.233C17.2678 37.6917 17.7386 38.0616 18.2727 38.3156C18.8069 38.5696 19.3909 38.7015 19.9824 38.7015C20.9037 38.7011 21.7965 38.3823 22.5096 37.7991C23.2228 37.2159 23.7124 36.4042 23.8955 35.5014C25.3101 28.7108 28.6768 22.4808 33.5823 17.5761C38.4879 12.6713 44.7189 9.30519 51.5106 7.89083C52.4135 7.7077 53.2253 7.21817 53.8086 6.50514C54.3919 5.79212 54.7108 4.89944 54.7112 3.9783C54.7114 3.38695 54.5798 2.803 54.326 2.26888C54.0721 1.73476 53.7025 1.2639 53.2438 0.890527C52.7852 0.517156 52.2491 0.250656 51.6745 0.1104C51.1 -0.0298564 50.5014 -0.0403441 49.9222 0.0796989Z" fill="white"/>
<path d="M51.5089 77.4745C44.7171 76.0601 38.4862 72.694 33.5806 67.7892C28.6751 62.8845 25.3084 56.6545 23.8938 49.8639C23.7107 48.9611 23.221 48.1494 22.5079 47.5662C21.7948 46.9831 20.9019 46.6642 19.9807 46.6638C19.3892 46.6636 18.8052 46.7952 18.271 47.049C17.7367 47.3028 17.2658 47.6724 16.8924 48.1309C16.5189 48.5895 16.2524 49.1255 16.1121 49.7C15.9718 50.2745 15.9614 50.873 16.0814 51.452C17.8038 59.7776 21.9254 67.4172 27.9381 73.4289C33.9507 79.4406 41.5916 83.5615 49.9185 85.2836C50.4982 85.4038 51.0973 85.3932 51.6723 85.2526C52.2473 85.112 52.7837 84.8449 53.2424 84.4709C53.7012 84.0969 54.0707 83.6252 54.3242 83.0904C54.5776 82.5555 54.7086 81.9709 54.7075 81.379C54.7053 80.4595 54.3859 79.569 53.8032 78.8576C53.2204 78.1463 52.4101 77.6577 51.5089 77.4745Z" fill="white"/>
</g>
<path d="M22.905 133.78C20.385 136.253 17.2467 137.49 13.49 137.49C9.73333 137.49 6.595 136.265 4.075 133.815C1.57833 131.342 0.33 128.32 0.33 124.75C0.33 121.203 1.59 118.193 4.11 115.72C6.65333 113.247 9.80333 112.01 13.56 112.01C17.3167 112.01 20.4433 113.247 22.94 115.72C25.46 118.17 26.72 121.18 26.72 124.75C26.72 128.297 25.4483 131.307 22.905 133.78ZM13.56 131.365C15.4033 131.365 16.8967 130.723 18.04 129.44C19.2067 128.157 19.79 126.593 19.79 124.75C19.79 122.93 19.195 121.378 18.005 120.095C16.815 118.788 15.31 118.135 13.49 118.135C11.67 118.135 10.1767 118.777 9.01 120.06C7.86667 121.343 7.295 122.907 7.295 124.75C7.295 126.57 7.87833 128.133 9.045 129.44C10.235 130.723 11.74 131.365 13.56 131.365ZM30.2569 137V112.5H41.8419C45.4119 112.5 48.0719 113.375 49.8219 115.125C51.2686 116.572 51.9919 118.508 51.9919 120.935C51.9919 124.528 50.3119 127.037 46.9519 128.46L52.7969 137H44.9569L40.0219 129.58H37.0469V137H30.2569ZM37.0469 124.26H41.5269C42.6702 124.26 43.5569 124.003 44.1869 123.49C44.8402 122.953 45.1669 122.218 45.1669 121.285C45.1669 120.328 44.8402 119.605 44.1869 119.115C43.5569 118.625 42.6586 118.38 41.4919 118.38H37.0469V124.26ZM55.5532 137V112.5H62.3782V137H55.5532ZM66.8634 137V112.5H76.3134C80.6067 112.5 83.9784 113.62 86.4284 115.86C88.9017 118.1 90.1384 121.04 90.1384 124.68C90.1384 128.297 88.89 131.26 86.3934 133.57C83.8967 135.857 80.49 137 76.1734 137H66.8634ZM73.6534 130.98H76.4184C78.4717 130.98 80.105 130.432 81.3184 129.335C82.555 128.238 83.1734 126.698 83.1734 124.715C83.1734 122.778 82.555 121.25 81.3184 120.13C80.105 119.01 78.4717 118.45 76.4184 118.45H73.6534V130.98ZM89.9229 137L100.353 112.325H106.898L117.328 137H110.048L108.263 132.625H98.8129L97.0629 137H89.9229ZM100.808 127.34H106.303L103.573 120.375L100.808 127.34Z" fill="white"/>
<defs>
<clipPath id="clip0_469_5049">
<rect width="86" height="86" fill="white" transform="translate(16)"/>
</clipPath>
</defs>
</svg>
