<svg version="1.1" xmlns="http://www.w3.org/2000/svg" xmlns:xlink="http://www.w3.org/1999/xlink">
    <defs>
        <symbol id="cross" viewBox="0 0 32 32">
            <path d="M31.708 25.708c-0-0-0-0-0-0l-9.708-9.708 9.708-9.708c0-0 0-0 0-0 0.105-0.105 0.18-0.227 0.229-0.357 0.133-0.356 0.057-0.771-0.229-1.057l-4.586-4.586c-0.286-0.286-0.702-0.361-1.057-0.229-0.13 0.048-0.252 0.124-0.357 0.228 0 0-0 0-0 0l-9.708 9.708-9.708-9.708c-0-0-0-0-0-0-0.105-0.104-0.227-0.18-0.357-0.228-0.356-0.133-0.771-0.057-1.057 0.229l-4.586 4.586c-0.286 0.286-0.361 0.702-0.229 1.057 0.049 0.13 0.124 0.252 0.229 0.357 0 0 0 0 0 0l9.708 9.708-9.708 9.708c-0 0-0 0-0 0-0.104 0.105-0.18 0.227-0.229 0.357-0.133 0.355-0.057 0.771 0.229 1.057l4.586 4.586c0.286 0.286 0.702 0.361 1.057 0.229 0.13-0.049 0.252-0.124 0.357-0.229 0-0 0-0 0-0l9.708-9.708 9.708 9.708c0 0 0 0 0 0 0.105 0.105 0.227 0.18 0.357 0.229 0.356 0.133 0.771 0.057 1.057-0.229l4.586-4.586c0.286-0.286 0.362-0.702 0.229-1.057-0.049-0.13-0.124-0.252-0.229-0.357z"></path>
        </symbol>
        <symbol id="logout" viewBox="0 0 32 32">
            <path d="M20 4.581v4.249c1.131 0.494 2.172 1.2 3.071 2.099 1.889 1.889 2.929 4.4 2.929 7.071s-1.040 5.182-2.929 7.071c-1.889 1.889-4.4 2.929-7.071 2.929s-5.182-1.040-7.071-2.929c-1.889-1.889-2.929-4.4-2.929-7.071s1.040-5.182 2.929-7.071c0.899-0.899 1.94-1.606 3.071-2.099v-4.249c-5.783 1.721-10 7.077-10 13.419 0 7.732 6.268 14 14 14s14-6.268 14-14c0-6.342-4.217-11.698-10-13.419zM14 0h4v16h-4z"></path>
        </symbol>
        <symbol id="search" viewBox="0 0 32 32">
            <path d="M31.008 27.231l-7.58-6.447c-0.784-0.705-1.622-1.029-2.299-0.998 1.789-2.096 2.87-4.815 2.87-7.787 0-6.627-5.373-12-12-12s-12 5.373-12 12 5.373 12 12 12c2.972 0 5.691-1.081 7.787-2.87-0.031 0.677 0.293 1.515 0.998 2.299l6.447 7.58c1.104 1.226 2.907 1.33 4.007 0.23s0.997-2.903-0.23-4.007zM12 20c-4.418 0-8-3.582-8-8s3.582-8 8-8 8 3.582 8 8-3.582 8-8 8z"></path>
        </symbol>
        <symbol id="map" viewBox="0 0 50 50">
            <path d="M25 16.5156C23.8369 16.5156 22.8906 17.4619 22.8906 18.625C22.8906 19.7881 23.8369 20.7344 25 20.7344C26.1631 20.7344 27.1094 19.7881 27.1094 18.625C27.1094 17.4619 26.1631 16.5156 25 16.5156Z" fill="white"/>
            <path d="M25 13C21.8984 13 19.375 15.5234 19.375 18.625C19.375 19.6887 19.6736 20.7249 20.2389 21.6215L25 29.2188L29.7611 21.6215C30.3264 20.7249 30.625 19.6887 30.625 18.625C30.625 15.5234 28.1016 13 25 13ZM25 22.1406C23.0616 22.1406 21.4844 20.5634 21.4844 18.625C21.4844 16.6866 23.0616 15.1094 25 15.1094C26.9384 15.1094 28.5156 16.6866 28.5156 18.625C28.5156 20.5634 26.9384 22.1406 25 22.1406Z" fill="white"/>
            <path d="M21.5781 37H28.4199L27.8792 32.7344H22.1053L21.5781 37Z" fill="white"/>
            <path d="M22.2812 31.3282H24.6678L22.6762 28.1694L22.2812 31.3282Z" fill="white"/>
            <path d="M29.1172 31.3281H34.6567L32.8989 27.1094H28.5762L29.1172 31.3281Z" fill="white"/>
            <path d="M15.3438 31.3281H20.864L21.3914 27.1094H17.1016L15.3438 31.3281Z" fill="white"/>
            <path d="M25.332 31.3282H27.6981L27.2984 28.21L25.332 31.3282Z" fill="white"/>
            <path d="M20.688 32.7344H14.7576L13 37H20.1609L20.688 32.7344Z" fill="white"/>
            <path d="M35.2421 32.7344H29.2969L29.8378 37H36.9998L35.2421 32.7344Z" fill="white"/>
        </symbol>
        <symbol id="stats" viewBox="0 0 50 50">
            <path d="M13.7031 32.5802H14.4531V16.0106C14.4531 15.5773 14.7677 15.2266 15.1562 15.2266H17.9688C18.3573 15.2266 18.6719 15.5773 18.6719 16.0106V32.5802H20.0781V20.7149C20.0781 20.2816 20.3927 19.9309 20.7812 19.9309H23.5938C23.9823 19.9309 24.2969 20.2816 24.2969 20.7149V32.5802H25.7031V26.9873C25.7031 26.554 26.0177 26.2033 26.4062 26.2033H29.2188C29.6073 26.2033 29.9219 26.554 29.9219 26.9873V32.5802H31.3281V23.8511C31.3281 23.4178 31.6427 23.0671 32.0312 23.0671H34.8438C35.2323 23.0671 35.5469 23.4178 35.5469 23.8511V32.5802H36.2969C36.6854 32.5802 37 32.931 37 33.3643C37 33.7975 36.6854 34.1483 36.2969 34.1483H13.7031C13.3146 34.1483 13 33.7975 13 33.3643C13 32.931 13.3146 32.5802 13.7031 32.5802Z" fill="white"/>
        </symbol>
        <symbol id="marker" viewBox="0 0 21 21">
            <path fill-rule="evenodd" clip-rule="evenodd" d="M7.15196 1.33838C5.6101 1.33838 4.1314 1.95088 3.04114 3.04114C1.95088 4.1314 1.33838 5.61011 1.33838 7.15196C1.33838 7.89093 1.68946 9.04738 2.29554 10.4468C2.88936 11.8178 3.68615 13.3306 4.49028 14.7455C5.29317 16.1582 6.09699 17.4622 6.70058 18.4137C6.86626 18.6748 7.01672 18.9092 7.14778 19.1118C7.27884 18.9092 7.4293 18.6748 7.59498 18.4137C8.19857 17.4622 9.00239 16.1582 9.80528 14.7455C10.6094 13.3306 11.4062 11.8178 12 10.4468C12.6061 9.04738 12.9572 7.89093 12.9572 7.15196C12.9572 7.1178 12.9597 7.08423 12.9647 7.05145C12.9387 5.54596 12.3293 4.10768 11.2628 3.04114C10.1725 1.95088 8.69382 1.33838 7.15196 1.33838ZM14.2937 7.26851C14.3005 7.23029 14.3039 7.19131 14.3039 7.15196C14.3039 5.25514 13.5504 3.43601 12.2092 2.09476C10.8679 0.753508 9.04878 0 7.15196 0C5.25514 0 3.43602 0.753508 2.09476 2.09476C0.75351 3.43601 0 5.25514 0 7.15196C0 8.19262 0.458744 9.57334 1.0674 10.9787C1.68831 12.4123 2.51117 13.9718 3.32669 15.4068C4.14344 16.8439 4.95927 18.1672 5.57042 19.1306C5.87617 19.6126 6.13112 20.0052 6.3099 20.2776C6.3993 20.4139 6.46968 20.5201 6.51787 20.5926C6.54196 20.6288 6.56051 20.6566 6.57312 20.6754L6.58753 20.6969L6.5926 20.7044C6.59268 20.7045 6.59273 20.7046 7.14778 20.3308L6.5926 20.7044C6.71696 20.8891 6.92515 21 7.14778 21C7.37041 21 7.57847 20.8893 7.70283 20.7046L7.14778 20.3308C7.70283 20.7046 7.70275 20.7047 7.70283 20.7046L7.70803 20.6969L7.72244 20.6754C7.73505 20.6566 7.7536 20.6288 7.7777 20.5926C7.82589 20.5201 7.89626 20.4139 7.98566 20.2776C8.16444 20.0052 8.41939 19.6126 8.72514 19.1306C9.33629 18.1672 10.1521 16.8439 10.9689 15.4068C11.7844 13.9718 12.6072 12.4123 13.2282 10.9787C13.8144 9.62519 14.2615 8.29453 14.2937 7.26851Z" fill="#20124D"/>
            <path fill-rule="evenodd" clip-rule="evenodd" d="M7.1487 5.36182C6.2848 5.36182 5.58447 6.06215 5.58447 6.92605C5.58447 7.78995 6.2848 8.49028 7.1487 8.49028C8.0126 8.49028 8.71293 7.78995 8.71293 6.92605C8.71293 6.06215 8.0126 5.36182 7.1487 5.36182ZM4.24609 6.92605C4.24609 5.32298 5.54564 4.02344 7.1487 4.02344C8.75177 4.02344 10.0513 5.32298 10.0513 6.92605C10.0513 8.52911 8.75177 9.82866 7.1487 9.82866C5.54564 9.82866 4.24609 8.52911 4.24609 6.92605Z" fill="#20124D"/>
        </symbol>
    </defs>
</svg>
