<svg version="1.1" xmlns="http://www.w3.org/2000/svg" xmlns:xlink="http://www.w3.org/1999/xlink">
    <defs>
        <symbol id="cross" viewBox="0 0 32 32">
            <path d="M31.708 25.708c-0-0-0-0-0-0l-9.708-9.708 9.708-9.708c0-0 0-0 0-0 0.105-0.105 0.18-0.227 0.229-0.357 0.133-0.356 0.057-0.771-0.229-1.057l-4.586-4.586c-0.286-0.286-0.702-0.361-1.057-0.229-0.13 0.048-0.252 0.124-0.357 0.228 0 0-0 0-0 0l-9.708 9.708-9.708-9.708c-0-0-0-0-0-0-0.105-0.104-0.227-0.18-0.357-0.228-0.356-0.133-0.771-0.057-1.057 0.229l-4.586 4.586c-0.286 0.286-0.361 0.702-0.229 1.057 0.049 0.13 0.124 0.252 0.229 0.357 0 0 0 0 0 0l9.708 9.708-9.708 9.708c-0 0-0 0-0 0-0.104 0.105-0.18 0.227-0.229 0.357-0.133 0.355-0.057 0.771 0.229 1.057l4.586 4.586c0.286 0.286 0.702 0.361 1.057 0.229 0.13-0.049 0.252-0.124 0.357-0.229 0-0 0-0 0-0l9.708-9.708 9.708 9.708c0 0 0 0 0 0 0.105 0.105 0.227 0.18 0.357 0.229 0.356 0.133 0.771 0.057 1.057-0.229l4.586-4.586c0.286-0.286 0.362-0.702 0.229-1.057-0.049-0.13-0.124-0.252-0.229-0.357z"></path>
        </symbol>
        <symbol id="checkmark" viewBox="0 0 16 16">
            <path d="M13.5 2l-7.5 7.5-3.5-3.5-2.5 2.5 6 6 10-10z"></path>
        </symbol>
        <symbol id="logout" viewBox="0 0 32 32">
            <path d="M20 4.581v4.249c1.131 0.494 2.172 1.2 3.071 2.099 1.889 1.889 2.929 4.4 2.929 7.071s-1.040 5.182-2.929 7.071c-1.889 1.889-4.4 2.929-7.071 2.929s-5.182-1.040-7.071-2.929c-1.889-1.889-2.929-4.4-2.929-7.071s1.040-5.182 2.929-7.071c0.899-0.899 1.94-1.606 3.071-2.099v-4.249c-5.783 1.721-10 7.077-10 13.419 0 7.732 6.268 14 14 14s14-6.268 14-14c0-6.342-4.217-11.698-10-13.419zM14 0h4v16h-4z"></path>
        </symbol>
        <symbol id="map" viewBox="0 0 50 50">
            <path d="M25 16.5156C23.8369 16.5156 22.8906 17.4619 22.8906 18.625C22.8906 19.7881 23.8369 20.7344 25 20.7344C26.1631 20.7344 27.1094 19.7881 27.1094 18.625C27.1094 17.4619 26.1631 16.5156 25 16.5156Z"/>
            <path d="M25 13C21.8984 13 19.375 15.5234 19.375 18.625C19.375 19.6887 19.6736 20.7249 20.2389 21.6215L25 29.2188L29.7611 21.6215C30.3264 20.7249 30.625 19.6887 30.625 18.625C30.625 15.5234 28.1016 13 25 13ZM25 22.1406C23.0616 22.1406 21.4844 20.5634 21.4844 18.625C21.4844 16.6866 23.0616 15.1094 25 15.1094C26.9384 15.1094 28.5156 16.6866 28.5156 18.625C28.5156 20.5634 26.9384 22.1406 25 22.1406Z"/>
            <path d="M21.5781 37H28.4199L27.8792 32.7344H22.1053L21.5781 37Z"/>
            <path d="M22.2812 31.3282H24.6678L22.6762 28.1694L22.2812 31.3282Z"/>
            <path d="M29.1172 31.3281H34.6567L32.8989 27.1094H28.5762L29.1172 31.3281Z"/>
            <path d="M15.3438 31.3281H20.864L21.3914 27.1094H17.1016L15.3438 31.3281Z"/>
            <path d="M25.332 31.3282H27.6981L27.2984 28.21L25.332 31.3282Z"/>
            <path d="M20.688 32.7344H14.7576L13 37H20.1609L20.688 32.7344Z"/>
            <path d="M35.2421 32.7344H29.2969L29.8378 37H36.9998L35.2421 32.7344Z"/>
        </symbol>
        <symbol id="marker" viewBox="0 0 21 21">
            <path fill-rule="evenodd" clip-rule="evenodd" d="M7.15196 1.33838C5.6101 1.33838 4.1314 1.95088 3.04114 3.04114C1.95088 4.1314 1.33838 5.61011 1.33838 7.15196C1.33838 7.89093 1.68946 9.04738 2.29554 10.4468C2.88936 11.8178 3.68615 13.3306 4.49028 14.7455C5.29317 16.1582 6.09699 17.4622 6.70058 18.4137C6.86626 18.6748 7.01672 18.9092 7.14778 19.1118C7.27884 18.9092 7.4293 18.6748 7.59498 18.4137C8.19857 17.4622 9.00239 16.1582 9.80528 14.7455C10.6094 13.3306 11.4062 11.8178 12 10.4468C12.6061 9.04738 12.9572 7.89093 12.9572 7.15196C12.9572 7.1178 12.9597 7.08423 12.9647 7.05145C12.9387 5.54596 12.3293 4.10768 11.2628 3.04114C10.1725 1.95088 8.69382 1.33838 7.15196 1.33838ZM14.2937 7.26851C14.3005 7.23029 14.3039 7.19131 14.3039 7.15196C14.3039 5.25514 13.5504 3.43601 12.2092 2.09476C10.8679 0.753508 9.04878 0 7.15196 0C5.25514 0 3.43602 0.753508 2.09476 2.09476C0.75351 3.43601 0 5.25514 0 7.15196C0 8.19262 0.458744 9.57334 1.0674 10.9787C1.68831 12.4123 2.51117 13.9718 3.32669 15.4068C4.14344 16.8439 4.95927 18.1672 5.57042 19.1306C5.87617 19.6126 6.13112 20.0052 6.3099 20.2776C6.3993 20.4139 6.46968 20.5201 6.51787 20.5926C6.54196 20.6288 6.56051 20.6566 6.57312 20.6754L6.58753 20.6969L6.5926 20.7044C6.59268 20.7045 6.59273 20.7046 7.14778 20.3308L6.5926 20.7044C6.71696 20.8891 6.92515 21 7.14778 21C7.37041 21 7.57847 20.8893 7.70283 20.7046L7.14778 20.3308C7.70283 20.7046 7.70275 20.7047 7.70283 20.7046L7.70803 20.6969L7.72244 20.6754C7.73505 20.6566 7.7536 20.6288 7.7777 20.5926C7.82589 20.5201 7.89626 20.4139 7.98566 20.2776C8.16444 20.0052 8.41939 19.6126 8.72514 19.1306C9.33629 18.1672 10.1521 16.8439 10.9689 15.4068C11.7844 13.9718 12.6072 12.4123 13.2282 10.9787C13.8144 9.62519 14.2615 8.29453 14.2937 7.26851Z" fill="#20124D"/>
            <path fill-rule="evenodd" clip-rule="evenodd" d="M7.1487 5.36182C6.2848 5.36182 5.58447 6.06215 5.58447 6.92605C5.58447 7.78995 6.2848 8.49028 7.1487 8.49028C8.0126 8.49028 8.71293 7.78995 8.71293 6.92605C8.71293 6.06215 8.0126 5.36182 7.1487 5.36182ZM4.24609 6.92605C4.24609 5.32298 5.54564 4.02344 7.1487 4.02344C8.75177 4.02344 10.0513 5.32298 10.0513 6.92605C10.0513 8.52911 8.75177 9.82866 7.1487 9.82866C5.54564 9.82866 4.24609 8.52911 4.24609 6.92605Z" fill="#20124D"/>
        </symbol>
        <symbol id="search" viewBox="0 0 32 32">
            <path d="M31.008 27.231l-7.58-6.447c-0.784-0.705-1.622-1.029-2.299-0.998 1.789-2.096 2.87-4.815 2.87-7.787 0-6.627-5.373-12-12-12s-12 5.373-12 12 5.373 12 12 12c2.972 0 5.691-1.081 7.787-2.87-0.031 0.677 0.293 1.515 0.998 2.299l6.447 7.58c1.104 1.226 2.907 1.33 4.007 0.23s0.997-2.903-0.23-4.007zM12 20c-4.418 0-8-3.582-8-8s3.582-8 8-8 8 3.582 8 8-3.582 8-8 8z"></path>
        </symbol>
        <symbol id="stats" viewBox="0 0 50 50">
            <path d="M13.7031 32.5802H14.4531V16.0106C14.4531 15.5773 14.7677 15.2266 15.1562 15.2266H17.9688C18.3573 15.2266 18.6719 15.5773 18.6719 16.0106V32.5802H20.0781V20.7149C20.0781 20.2816 20.3927 19.9309 20.7812 19.9309H23.5938C23.9823 19.9309 24.2969 20.2816 24.2969 20.7149V32.5802H25.7031V26.9873C25.7031 26.554 26.0177 26.2033 26.4062 26.2033H29.2188C29.6073 26.2033 29.9219 26.554 29.9219 26.9873V32.5802H31.3281V23.8511C31.3281 23.4178 31.6427 23.0671 32.0312 23.0671H34.8438C35.2323 23.0671 35.5469 23.4178 35.5469 23.8511V32.5802H36.2969C36.6854 32.5802 37 32.931 37 33.3643C37 33.7975 36.6854 34.1483 36.2969 34.1483H13.7031C13.3146 34.1483 13 33.7975 13 33.3643C13 32.931 13.3146 32.5802 13.7031 32.5802Z" fill="white"/>
        </symbol>
        <symbol id="edit" viewBox="0 0 32 32">
            <path d="M27 0c2.761 0 5 2.239 5 5 0 1.126-0.372 2.164-1 3l-2 2-7-7 2-2c0.836-0.628 1.874-1 3-1zM2 23l-2 9 9-2 18.5-18.5-7-7-18.5 18.5zM22.362 11.362l-14 14-1.724-1.724 14-14 1.724 1.724z"></path>
        </symbol>
        <symbol id="email" viewBox="0 0 32 32">
            <path d="M29 4h-26c-1.65 0-3 1.35-3 3v20c0 1.65 1.35 3 3 3h26c1.65 0 3-1.35 3-3v-20c0-1.65-1.35-3-3-3zM12.461 17.199l-8.461 6.59v-15.676l8.461 9.086zM5.512 8h20.976l-10.488 7.875-10.488-7.875zM12.79 17.553l3.21 3.447 3.21-3.447 6.58 8.447h-19.579l6.58-8.447zM19.539 17.199l8.461-9.086v15.676l-8.461-6.59z"></path>
        </symbol>
        <symbol id="phone" viewBox="0 0 32 32">
            <path d="M22 20c-2 2-2 4-4 4s-4-2-6-4-4-4-4-6 2-2 4-4-4-8-6-8-6 6-6 6c0 4 4.109 12.109 8 16s12 8 16 8c0 0 6-4 6-6s-6-8-8-6z"></path>
        </symbol>
        <symbol id="site" viewBox="0 0 32 32">
            <path d="M16 0c-8.837 0-16 7.163-16 16s7.163 16 16 16 16-7.163 16-16-7.163-16-16-16zM16 30c-1.967 0-3.84-0.407-5.538-1.139l7.286-8.197c0.163-0.183 0.253-0.419 0.253-0.664v-3c0-0.552-0.448-1-1-1-3.531 0-7.256-3.671-7.293-3.707-0.188-0.188-0.442-0.293-0.707-0.293h-4c-0.552 0-1 0.448-1 1v6c0 0.379 0.214 0.725 0.553 0.894l3.447 1.724v5.871c-3.627-2.53-6-6.732-6-11.489 0-2.147 0.484-4.181 1.348-6h3.652c0.265 0 0.52-0.105 0.707-0.293l4-4c0.188-0.188 0.293-0.442 0.293-0.707v-2.419c1.268-0.377 2.61-0.581 4-0.581 2.2 0 4.281 0.508 6.134 1.412-0.13 0.109-0.256 0.224-0.376 0.345-1.133 1.133-1.757 2.64-1.757 4.243s0.624 3.109 1.757 4.243c1.139 1.139 2.663 1.758 4.239 1.758 0.099 0 0.198-0.002 0.297-0.007 0.432 1.619 1.211 5.833-0.263 11.635-0.014 0.055-0.022 0.109-0.026 0.163-2.541 2.596-6.084 4.208-10.004 4.208z"></path>
        </symbol>
        <symbol id="facebook" viewBox="0 0 32 32">
            <path d="M19 6h5v-6h-5c-3.86 0-7 3.14-7 7v3h-4v6h4v16h6v-16h5l1-6h-6v-3c0-0.542 0.458-1 1-1z"></path>
        </symbol>
        <symbol id="twitter" viewBox="0 0 32 32">
            <path d="M32 7.075c-1.175 0.525-2.444 0.875-3.769 1.031 1.356-0.813 2.394-2.1 2.887-3.631-1.269 0.75-2.675 1.3-4.169 1.594-1.2-1.275-2.906-2.069-4.794-2.069-3.625 0-6.563 2.938-6.563 6.563 0 0.512 0.056 1.012 0.169 1.494-5.456-0.275-10.294-2.888-13.531-6.862-0.563 0.969-0.887 2.1-0.887 3.3 0 2.275 1.156 4.287 2.919 5.463-1.075-0.031-2.087-0.331-2.975-0.819 0 0.025 0 0.056 0 0.081 0 3.181 2.263 5.838 5.269 6.437-0.55 0.15-1.131 0.231-1.731 0.231-0.425 0-0.831-0.044-1.237-0.119 0.838 2.606 3.263 4.506 6.131 4.563-2.25 1.762-5.075 2.813-8.156 2.813-0.531 0-1.050-0.031-1.569-0.094 2.913 1.869 6.362 2.95 10.069 2.95 12.075 0 18.681-10.006 18.681-18.681 0-0.287-0.006-0.569-0.019-0.85 1.281-0.919 2.394-2.075 3.275-3.394z"></path>
        </symbol>
        <symbol id="instagram" viewBox="0 0 32 32">
            <path d="M16 2.881c4.275 0 4.781 0.019 6.462 0.094 1.563 0.069 2.406 0.331 2.969 0.55 0.744 0.288 1.281 0.638 1.837 1.194 0.563 0.563 0.906 1.094 1.2 1.838 0.219 0.563 0.481 1.412 0.55 2.969 0.075 1.688 0.094 2.194 0.094 6.463s-0.019 4.781-0.094 6.463c-0.069 1.563-0.331 2.406-0.55 2.969-0.288 0.744-0.637 1.281-1.194 1.837-0.563 0.563-1.094 0.906-1.837 1.2-0.563 0.219-1.413 0.481-2.969 0.55-1.688 0.075-2.194 0.094-6.463 0.094s-4.781-0.019-6.463-0.094c-1.563-0.069-2.406-0.331-2.969-0.55-0.744-0.288-1.281-0.637-1.838-1.194-0.563-0.563-0.906-1.094-1.2-1.837-0.219-0.563-0.481-1.413-0.55-2.969-0.075-1.688-0.094-2.194-0.094-6.463s0.019-4.781 0.094-6.463c0.069-1.563 0.331-2.406 0.55-2.969 0.288-0.744 0.638-1.281 1.194-1.838 0.563-0.563 1.094-0.906 1.838-1.2 0.563-0.219 1.412-0.481 2.969-0.55 1.681-0.075 2.188-0.094 6.463-0.094zM16 0c-4.344 0-4.887 0.019-6.594 0.094-1.7 0.075-2.869 0.35-3.881 0.744-1.056 0.412-1.95 0.956-2.837 1.85-0.894 0.888-1.438 1.781-1.85 2.831-0.394 1.019-0.669 2.181-0.744 3.881-0.075 1.713-0.094 2.256-0.094 6.6s0.019 4.887 0.094 6.594c0.075 1.7 0.35 2.869 0.744 3.881 0.413 1.056 0.956 1.95 1.85 2.837 0.887 0.887 1.781 1.438 2.831 1.844 1.019 0.394 2.181 0.669 3.881 0.744 1.706 0.075 2.25 0.094 6.594 0.094s4.888-0.019 6.594-0.094c1.7-0.075 2.869-0.35 3.881-0.744 1.050-0.406 1.944-0.956 2.831-1.844s1.438-1.781 1.844-2.831c0.394-1.019 0.669-2.181 0.744-3.881 0.075-1.706 0.094-2.25 0.094-6.594s-0.019-4.887-0.094-6.594c-0.075-1.7-0.35-2.869-0.744-3.881-0.394-1.063-0.938-1.956-1.831-2.844-0.887-0.887-1.781-1.438-2.831-1.844-1.019-0.394-2.181-0.669-3.881-0.744-1.712-0.081-2.256-0.1-6.6-0.1v0z"></path>
            <path d="M16 7.781c-4.537 0-8.219 3.681-8.219 8.219s3.681 8.219 8.219 8.219 8.219-3.681 8.219-8.219c0-4.537-3.681-8.219-8.219-8.219zM16 21.331c-2.944 0-5.331-2.387-5.331-5.331s2.387-5.331 5.331-5.331c2.944 0 5.331 2.387 5.331 5.331s-2.387 5.331-5.331 5.331z"></path>
            <path d="M26.462 7.456c0 1.060-0.859 1.919-1.919 1.919s-1.919-0.859-1.919-1.919c0-1.060 0.859-1.919 1.919-1.919s1.919 0.859 1.919 1.919z"></path>
        </symbol>
        <symbol id="linkedin" viewBox="0 0 32 32">
            <path d="M12 12h5.535v2.837h0.079c0.77-1.381 2.655-2.837 5.464-2.837 5.842 0 6.922 3.637 6.922 8.367v9.633h-5.769v-8.54c0-2.037-0.042-4.657-3.001-4.657-3.005 0-3.463 2.218-3.463 4.509v8.688h-5.767v-18z"></path>
            <path d="M2 12h6v18h-6v-18z"></path>
            <path d="M8 7c0 1.657-1.343 3-3 3s-3-1.343-3-3c0-1.657 1.343-3 3-3s3 1.343 3 3z"></path>
        </symbol>
        <symbol id="list" viewBox="-15 -15 64 64">
            <path d="M12 2h20v4h-20v-4zM12 14h20v4h-20v-4zM12 26h20v4h-20v-4zM0 4c0-2.209 1.791-4 4-4s4 1.791 4 4c0 2.209-1.791 4-4 4s-4-1.791-4-4zM0 16c0-2.209 1.791-4 4-4s4 1.791 4 4c0 2.209-1.791 4-4 4s-4-1.791-4-4zM0 28c0-2.209 1.791-4 4-4s4 1.791 4 4c0 2.209-1.791 4-4 4s-4-1.791-4-4z"></path>
        </symbol>
        <symbol id="00000000-0000-0000-0000-000000000001" viewBox="0 0 45 45">
            <circle cx="22.5" cy="22.5" r="22.5" fill="#EF4924"/>
            <path d="M32.8208 21.5558L29.4151 18.1507V15.9275C29.4151 15.5888 29.1408 15.3145 28.8023 15.3145C28.4627 15.3145 28.1884 15.5888 28.1884 15.9275V16.9249L25.9399 14.6755C25.6993 14.4361 25.3125 14.4361 25.0734 14.6755L22.3752 17.3734L21.2982 16.2967C21.0591 16.0572 20.6706 16.0572 20.4314 16.2967L12.1798 24.5486C11.9404 24.7883 11.9404 25.1759 12.1798 25.4151C12.419 25.6548 12.8072 25.6548 13.0466 25.4151L20.8656 17.5958L28.6846 25.4151C28.8038 25.5341 28.9613 25.5952 29.1181 25.5952C29.2744 25.5952 29.4318 25.5352 29.5511 25.4151C29.7905 25.1754 29.7905 24.7877 29.5511 24.5486L25.4312 20.429V17.7121C25.4312 17.3734 25.1563 17.0987 24.8179 17.0987C24.4794 17.0987 24.2045 17.3734 24.2045 17.7121V19.2035L23.2417 18.2405L25.5066 15.9761L31.9537 22.4229C32.073 22.5419 32.2307 22.6024 32.387 22.6024C32.5435 22.6024 32.701 22.5425 32.8208 22.4229C33.0597 22.1835 33.0597 21.7956 32.8208 21.5558Z" fill="white"/>
            <path d="M27.7974 25.2529L21.2987 18.753C21.1836 18.6382 21.0277 18.5735 20.8655 18.5735C20.703 18.5735 20.547 18.6382 20.4319 18.753L13.9327 25.2529C13.8459 25.3391 13.7875 25.4494 13.7642 25.5695C13.746 25.6629 13.7371 25.7577 13.7371 25.8504V29.0227C13.7371 29.8394 14.4017 30.5043 15.2187 30.5043H18.3903C18.8009 30.5043 19.1972 30.3308 19.4772 30.0281C19.7318 29.7526 19.872 29.396 19.872 29.0224V26.6931C19.872 26.1277 20.3052 25.6557 20.8649 25.6023C21.4245 25.6557 21.8581 26.128 21.8581 26.6931V29.0224C21.8581 29.396 21.9982 29.7526 22.2529 30.0281C22.5326 30.3305 22.9288 30.504 23.34 30.504H26.5126C27.3296 30.504 27.9942 29.8394 27.9942 29.0224V25.8507C27.9942 25.7577 27.9855 25.6626 27.9668 25.5695C27.9423 25.4494 27.8842 25.3391 27.7974 25.2529Z" fill="white"/>
        </symbol>
        <symbol id="00000000-0000-0000-0000-000000000002" viewBox="0 0 45 45">
            <circle cx="22.5" cy="22.5" r="22.5" fill="#EFD31A"/>
            <path d="M32.6209 19.4449C32.5844 19.2997 32.488 19.177 32.356 19.1062C32.2244 19.0358 32.0689 19.0239 31.9278 19.0734C30.6905 19.5081 28.7815 19.7878 26.6344 19.7878C26.1124 19.7878 25.6093 19.7679 25.1215 19.7365C24.8693 20.876 24.4663 21.9223 23.9516 22.8438C23.9766 22.8428 24.0005 22.8387 24.0258 22.8387C24.693 22.8387 25.2337 22.783 25.2337 23.2325C25.2337 23.6819 24.6929 24.4664 24.0258 24.4664C23.6371 24.4664 23.295 24.3406 23.0742 24.1485C22.4074 24.9764 21.6284 25.6291 20.7705 26.0608C21.7378 29.3165 23.9991 31.6004 26.6344 31.6004C30.1501 31.6004 33 27.536 33 22.5222C33 21.4407 32.8649 20.4058 32.6209 19.4449ZM29.1712 28.9496C29.1599 28.9975 29.1243 29.0365 29.0776 29.0518C29.0307 29.0675 28.9791 29.0577 28.9415 29.0258C28.4456 28.6092 27.602 28.3323 26.6344 28.3323C25.6667 28.3323 24.8232 28.6092 24.3273 29.0258C24.2897 29.0573 24.238 29.0672 24.1913 29.0518C24.1444 29.0361 24.1089 28.9975 24.0976 28.9496C24.0566 28.775 24.0313 28.5949 24.0313 28.4075C24.0313 26.9699 25.1969 25.8044 26.6345 25.8044C28.0721 25.8044 29.2375 26.9699 29.2375 28.4075C29.2375 28.5949 29.2122 28.775 29.1712 28.9496ZM29.243 24.4663C28.5758 24.4663 28.035 23.6819 28.035 23.2324C28.035 22.783 28.5758 22.8387 29.243 22.8387C29.9101 22.8387 30.4509 23.2031 30.4509 23.6525C30.4508 24.1019 29.9101 24.4663 29.243 24.4663Z" fill="white"/>
            <path d="M24.7313 16.8784C24.7313 15.797 24.5962 14.762 24.3522 13.8012C24.3156 13.656 24.2193 13.5332 24.0873 13.4625C24.0094 13.4208 23.9229 13.3996 23.8357 13.3996C23.7762 13.3996 23.7164 13.4094 23.6591 13.4297C22.4218 13.8644 20.5128 14.144 18.3657 14.144C16.2185 14.144 14.3095 13.8644 13.0722 13.4297C13.0152 13.4094 12.9557 13.3996 12.8962 13.3996C12.8091 13.3996 12.7222 13.421 12.6439 13.4628C12.5124 13.5336 12.4157 13.6563 12.379 13.8012C12.135 14.7621 12 15.797 12 16.8784C12 21.8922 14.8499 25.9566 18.3657 25.9566C21.8814 25.9566 24.7313 21.8922 24.7313 16.8784ZM14.5491 18.0067C14.5491 17.5572 15.0899 17.1929 15.7571 17.1929C16.4242 17.1929 16.965 17.9772 16.965 18.4267C16.965 18.8762 16.4242 18.8205 15.7571 18.8205C15.0899 18.8205 14.5491 18.4561 14.5491 18.0067ZM18.3657 24.2403C16.928 24.2403 15.7626 23.0748 15.7626 21.6373C15.7626 21.45 15.7878 21.2698 15.8288 21.0951C15.8401 21.0474 15.8757 21.0087 15.9225 20.9929C15.9693 20.9776 16.0209 20.9875 16.0585 21.0189C16.5544 21.4356 17.398 21.7124 18.3656 21.7124C19.3333 21.7124 20.1768 21.4356 20.6727 21.0189C20.7104 20.9871 20.7619 20.9773 20.8088 20.9929C20.8556 21.0084 20.8911 21.0474 20.9024 21.0951C20.9434 21.2698 20.9687 21.45 20.9687 21.6373C20.9687 23.0748 19.8033 24.2403 18.3657 24.2403ZM19.7663 18.4267C19.7663 17.9772 20.307 17.1929 20.9742 17.1929C21.6414 17.1929 22.1822 17.5572 22.1822 18.0067C22.1822 18.4561 21.6414 18.8205 20.9742 18.8205C20.307 18.8205 19.7663 18.8762 19.7663 18.4267Z" fill="white"/>
        </symbol>
        <symbol id="00000000-0000-0000-0000-000000000003" viewBox="0 0 45 45">
            <circle cx="22.5" cy="22.5" r="22.5" fill="#EC468B"/>
            <path d="M21.8402 33V32.9884V30.2362C21.4834 30.4 21.0926 30.4868 20.6953 30.4868C20.3218 30.4868 19.9593 30.4128 19.6181 30.2671C19.2888 30.1264 18.9939 29.9253 18.7416 29.6696C18.222 29.1427 17.9414 28.4447 17.9517 27.7042C17.9616 26.9878 18.248 26.3127 18.7582 25.8032C19.2683 25.2937 19.9438 25.0082 20.6603 24.9992C20.672 24.999 20.6836 24.999 20.6953 24.999C21.0926 24.999 21.4834 25.0858 21.8403 25.2495L21.8429 22.509H18.5603C18.6398 22.3701 18.7573 22.1971 18.8922 22.0002C19.1531 21.6194 19.3474 21.1789 19.3411 20.68C19.327 19.5549 18.4092 18.6359 17.2841 18.6203C17.2743 18.6202 17.2643 18.6201 17.2545 18.6201C16.102 18.62 15.1678 19.5543 15.1678 20.7069C15.1678 21.1946 15.3591 21.6256 15.6156 21.9986C15.7403 22.1799 15.8692 22.37 15.9488 22.509H12.8852C12.4013 22.509 12.009 22.9012 12.009 23.3851V32.1238C12.009 32.6077 12.4013 33 12.8852 33L21.8402 33Z" fill="white"/>
            <path d="M30.2388 23.1481C30.4026 23.505 30.4894 23.8958 30.4894 24.2931C30.4894 25.026 30.204 25.7151 29.6858 26.2333C29.1675 26.7516 28.4785 27.0369 27.7455 27.0369C27.7328 27.0369 27.7197 27.0368 27.7068 27.0367C26.9904 27.0267 26.3154 26.7403 25.8058 26.2302C25.2964 25.72 25.0108 25.0445 25.0018 24.3281C24.9967 23.9183 25.0835 23.5153 25.252 23.1481H23.1571H22.8285H22.4969L22.4973 26.4371C22.3813 26.3707 22.1664 26.226 21.9686 26.0897C21.6023 25.837 21.1746 25.6561 20.6952 25.6561C20.6862 25.6561 20.6774 25.6562 20.6684 25.6563C19.5432 25.6704 18.6242 26.5882 18.6086 27.7133C18.6033 28.0988 18.7025 28.4607 18.8797 28.7724C19.2385 29.4038 19.9171 29.8297 20.6952 29.8297C21.1746 29.8297 21.5925 29.6341 21.9686 29.3961C22.2002 29.2496 22.3812 29.1151 22.4973 29.0487V29.0641V32.9884H22.4999H22.8285H23.157H32.1121C32.596 32.9884 32.9883 32.5961 32.9883 32.1123V23.1481H30.2388Z" fill="white"/>
            <path d="M32.1149 12H22.5V16.0251C22.5 16.0251 22.8524 15.72 22.965 15.6401C23.3266 15.3395 23.7912 15.1587 24.2981 15.1587C25.4605 15.1587 26.4008 16.109 26.3847 17.2751C26.3692 18.4002 25.4501 19.318 24.325 19.3321C24.316 19.3322 24.3071 19.3323 24.2981 19.3323C23.7911 19.3323 23.3265 19.1514 22.965 18.8508C22.8523 18.7709 22.5 18.4659 22.5 18.4659V22.491H23.1571H26.4398C26.4094 22.5532 26.2334 22.82 26.0896 23.0231C25.8285 23.3919 25.6528 23.8317 25.6589 24.3199C25.673 25.445 26.5908 26.3641 27.7159 26.3797C27.7258 26.3798 27.7357 26.3799 27.7456 26.3799C28.2852 26.3799 28.7769 26.1751 29.1474 25.839C29.5681 25.4572 29.8323 24.906 29.8323 24.2931C29.8323 23.8149 29.6521 23.3883 29.4008 23.0223C29.2407 22.7892 29.1198 22.6102 29.055 22.4974C29.0537 22.4952 29.0526 22.4932 29.0513 22.491H32.9311H32.991V22.1182V12.8761C32.991 12.3923 32.5987 12 32.1149 12Z" fill="white"/>
        </symbol>
        <symbol id="00000000-0000-0000-0000-000000000004" viewBox="0 0 45 45">
            <circle cx="22.5" cy="22.5" r="22.5" fill="#67BF6B"/>
            <path d="M32.9638 12.295C32.8902 12.1165 32.7156 12 32.5228 12C13.9998 12 12 19.6765 12 22.9773C12 24.1647 12.2635 25.2739 12.7837 26.2733C12.8639 26.4279 13.0223 26.5263 13.1961 26.5301C13.3602 26.5253 13.533 26.4433 13.6199 26.2915C14.8704 24.1304 18.4117 18.7964 24.2602 15.9623C24.4998 15.8478 24.7862 15.9461 24.8998 16.1819C25.0143 16.4196 24.915 16.7059 24.6783 16.8205C24.2373 17.0343 23.8135 17.2672 23.3983 17.5087C23.2398 17.6013 23.0861 17.6996 22.9306 17.796C22.6967 17.9411 22.4657 18.089 22.2404 18.2418C22.0161 18.3926 21.7946 18.5473 21.577 18.7057C21.5092 18.7553 21.4443 18.8059 21.3775 18.8565C15.5566 23.194 12 30.1135 12 32.5228C12 32.7862 12.2138 33 12.4773 33C12.7407 33 12.9546 32.7862 12.9546 32.5228C12.9546 31.7534 13.4786 30.1937 14.4704 28.3333C15.9099 29.5102 17.8466 30.1364 20.1137 30.1364C26.2428 30.1364 27.5267 24.3041 28.2158 21.1704C29.1437 16.9532 31.1854 14.4895 32.8597 12.8143C32.9972 12.6777 33.0373 12.4734 32.9638 12.295Z" fill="white"/>
        </symbol>
        <symbol id="00000000-0000-0000-0000-000000000005" viewBox="0 0 45 45">
            <circle cx="22.5" cy="22.5" r="22.5" fill="#F36B28"/>
            <path d="M32.3861 16.3557L32.3329 16.3025C31.8327 15.8022 31.0174 15.8011 30.5141 16.3039L28.5562 18.2825C28.4531 18.3859 28.2881 18.3901 28.1805 18.2911L25.4354 15.7568C25.1688 15.5104 24.8219 15.375 24.4585 15.375H20.3751C20.2787 15.375 20.1865 15.4118 20.1167 15.4778L16.6558 18.7639C16.1487 19.2713 16.1139 20.0892 16.5785 20.5872C16.8268 20.8535 17.1621 21.0001 17.5224 21.0001H17.5288C17.8862 20.9982 18.2297 20.8464 18.4671 20.5868L20.9114 18H21.7863L16.082 24.3752H12.5637C11.7297 24.3752 11.0438 24.9989 11.0022 25.795C10.9801 26.2109 11.1256 26.6061 11.4117 26.9076C11.6937 27.205 12.0901 27.3753 12.5 27.3753H17.7501C17.8536 27.3753 17.9526 27.3325 18.0238 27.2564L20.7137 24.385L22.9758 26.7505L22.2929 31.1148C22.1207 31.8378 22.4676 32.5743 23.1175 32.8649C23.3178 32.9549 23.5304 32.9999 23.7419 32.9999C23.9695 32.9999 24.196 32.9478 24.4045 32.8447C24.8073 32.6452 25.0968 32.2803 25.2022 31.8265L26.3688 25.5688C26.3913 25.4473 26.3527 25.322 26.265 25.2347L23.1513 22.1251L25.6248 19.6554L27.3491 21.3792C27.8306 21.8608 28.6699 21.8608 29.151 21.3792L32.3862 18.1444C32.6251 17.9056 32.7568 17.5876 32.7568 17.25C32.7567 16.9122 32.625 16.5946 32.3861 16.3557Z" fill="white"/>
            <path d="M28.2501 16.5001C29.491 16.5001 30.5001 15.491 30.5001 14.2501C30.5001 13.0091 29.491 12 28.2501 12C27.0092 12 26 13.0091 26 14.2501C26 15.491 27.0092 16.5001 28.2501 16.5001Z" fill="white"/>
        </symbol>
        <symbol id="00000000-0000-0000-0000-000000000006" viewBox="0 0 45 45">
            <circle cx="22.5" cy="22.5" r="22.5" fill="#A1CD49"/>
            <path d="M29.7489 22.8732H29.3757V22.5C29.3757 22.1602 29.1002 21.8848 28.7604 21.8848C28.4207 21.8848 28.1452 22.1602 28.1452 22.5V22.8732H27.772C27.4322 22.8732 27.1567 23.1487 27.1567 23.4885C27.1567 23.8283 27.4322 24.1037 27.772 24.1037H28.1452V24.477C28.1452 24.8167 28.4207 25.0922 28.7604 25.0922C29.1002 25.0922 29.3757 24.8167 29.3757 24.477V24.1037H29.7489C30.0887 24.1037 30.3642 23.8283 30.3642 23.4885C30.3642 23.1487 30.0887 22.8732 29.7489 22.8732Z" fill="white"/>
            <path d="M15.251 14.2189H15.6242V14.5922C15.6242 14.932 15.8997 15.2074 16.2395 15.2074C16.5792 15.2074 16.8547 14.932 16.8547 14.5922V14.2189H17.2279C17.5677 14.2189 17.8432 13.9435 17.8432 13.6037C17.8432 13.2639 17.5677 12.9885 17.2279 12.9885H16.8547V12.6152C16.8547 12.2755 16.5792 12 16.2395 12C15.8997 12 15.6242 12.2755 15.6242 12.6152V12.9885H15.251C14.9112 12.9885 14.6357 13.2639 14.6357 13.6037C14.6357 13.9435 14.9112 14.2189 15.251 14.2189Z" fill="white"/>
            <path d="M17.4069 22.7592C17.6594 22.6826 17.843 22.448 17.843 22.1705C17.843 21.8941 17.6607 21.6603 17.4098 21.5827C16.5205 21.2817 15.812 20.5739 15.5102 19.6849C15.4335 19.4325 15.199 19.2489 14.9215 19.2489C14.6452 19.2489 14.4114 19.4312 14.3337 19.682C14.0328 20.5714 13.325 21.2798 12.4361 21.5816C12.1837 21.6583 12 21.8929 12 22.1705C12 22.4468 12.1823 22.6806 12.4332 22.7583C13.3225 23.0592 14.0309 23.767 14.3328 24.6559C14.4094 24.9083 14.644 25.092 14.9215 25.092C15.1979 25.092 15.4317 24.9096 15.5093 24.6588C15.8103 23.7695 16.518 23.0611 17.4069 22.7592Z" fill="white"/>
            <path d="M25.8639 25.3529C25.2604 24.0455 23.9401 23.2008 22.4997 23.2008C21.0599 23.2008 19.7396 24.0455 19.1361 25.3529L18.6086 26.4957H26.3914L25.8639 25.3529Z" fill="white"/>
            <path d="M23.1152 22.0099V12.6152C23.1152 12.2755 22.8398 12 22.5 12C22.1602 12 21.8848 12.2755 21.8848 12.6152V22.0099C22.0873 21.9842 22.2925 21.9703 22.4997 21.9703C22.7071 21.9703 22.9125 21.9843 23.1152 22.0099Z" fill="white"/>
            <path d="M26.9592 27.7262H18.0407L16.0105 32.125C15.9225 32.3156 15.9378 32.5377 16.0509 32.7144C16.164 32.8912 16.3593 32.9981 16.5691 32.9981H18.0611C18.8803 32.9981 19.6403 32.6719 20.1935 32.1106C21.1533 33.0843 22.3266 32.9981 22.5061 32.9981C22.6796 32.9981 23.8485 33.0825 24.8064 32.1106C25.3597 32.6719 26.1197 32.9981 26.9389 32.9981H28.4308C28.6406 32.9981 28.836 32.8912 28.9491 32.7144C29.0621 32.5377 29.0774 32.3156 28.9895 32.125L26.9592 27.7262Z" fill="white"/>
            <path d="M32.5669 14.334C31.6776 14.033 30.9692 13.3252 30.6673 12.4363C30.5907 12.1839 30.3561 12.0003 30.0785 12.0003C29.8022 12.0003 29.5684 12.1826 29.4907 12.4335C29.1898 13.3228 28.482 14.0312 27.5931 14.333C27.3407 14.4097 27.157 14.6443 27.157 14.9218C27.157 15.1981 27.3393 15.4319 27.5902 15.5096C28.4795 15.8105 29.1879 16.5183 29.4898 17.4072C29.5664 17.6597 29.801 17.8433 30.0785 17.8433C30.3549 17.8433 30.5887 17.661 30.6663 17.4102C30.9673 16.5208 31.6751 15.8124 32.564 15.5106C32.8164 15.4339 33.0001 15.1993 33.0001 14.9218C33.0001 14.6454 32.8178 14.4116 32.5669 14.334Z" fill="white"/>
        </symbol>
        <symbol id="00000000-0000-0000-0000-000000000007" viewBox="0 0 45 45">
            <circle cx="22.5" cy="22.5" r="22.5" fill="#EE2F44"/>
            <path d="M31.4171 19.7806L29.9443 14.8713C29.6085 13.7517 28.5979 13 27.4296 13H17.5704C16.4021 13 15.3915 13.7517 15.0557 14.8713L13.5829 19.7806C12.6529 20.1848 12 21.1103 12 22.1875V27.4375C12 28.1623 12.5877 28.75 13.3125 28.75H13.3126L13.3125 30.0624C13.3125 30.7873 13.9001 31.375 14.625 31.375H15.9376C16.6624 31.375 17.2501 30.7873 17.2501 30.0625L17.2495 28.75H27.75L27.7499 30.0624C27.7499 30.7873 28.3375 31.375 29.0624 31.375H30.375C31.0999 31.375 31.6875 30.7873 31.6875 30.0625V28.7501L31.687 28.75H31.6875C32.4123 28.75 33 28.1623 33 27.4375V22.1875C33 21.1103 32.3471 20.1848 31.4171 19.7806L31.4171 19.7806ZM17.5704 15.625H27.4295L28.6108 19.5625H16.3891L17.5704 15.625H17.5704ZM17.25 25.4688C16.5251 25.4688 15.9375 24.8811 15.9375 24.1562C15.9375 23.4313 16.5251 22.8438 17.25 22.8438C17.9749 22.8438 18.5625 23.4313 18.5625 24.1562C18.5625 24.8811 17.9749 25.4688 17.25 25.4688ZM27.75 25.4688C27.0251 25.4688 26.4375 24.8811 26.4375 24.1562C26.4375 23.4313 27.0251 22.8438 27.75 22.8438C28.4749 22.8438 29.0625 23.4313 29.0625 24.1562C29.0625 24.8811 28.4749 25.4688 27.75 25.4688Z" fill="white"/>
        </symbol>
        <symbol id="00000000-0000-0000-0000-000000000008" viewBox="0 0 45 45">
            <circle cx="22.5" cy="22.5" r="22.5" fill="#915BA6"/>
            <path d="M26.2427 25.9724C27.2543 24.5662 27.8762 22.9503 28.0703 21.2447L22.4496 19.6464L16.8289 21.2447C17.023 22.9502 17.6449 24.5662 18.6565 25.9724C19.6415 27.3415 20.9487 28.443 22.4496 29.1716C23.9505 28.443 25.2577 27.3415 26.2427 25.9724Z" fill="white"/>
            <path d="M22.4497 18.3423L28.1363 19.9593V17.3511L22.4497 15.734L16.7632 17.3511V19.9593L22.4497 18.3423Z" fill="white"/>
            <path d="M23.0769 12V14.6082L29.3906 16.4036V20.084C29.3906 22.4789 28.6543 24.7684 27.2611 26.705C26.1719 28.2188 24.7314 29.4415 23.0769 30.2609V33C25.5752 32.0265 27.7193 30.364 29.2976 28.1701C30.9997 25.8041 31.8994 23.0079 31.8994 20.084V14.5088L23.0769 12Z" fill="white"/>
            <path d="M21.8225 30.2608C20.168 29.4415 18.7274 28.2188 17.6384 26.705C16.2452 24.7684 15.5088 22.4789 15.5088 20.084V16.4036L21.8225 14.6082V12L13 14.5088V20.084C13 23.0079 13.8997 25.804 15.6018 28.17C17.1801 30.364 19.3243 32.0265 21.8225 33V30.2608Z" fill="white"/>
        </symbol>
        <symbol id="00000000-0000-0000-0000-000000000009" viewBox="0 0 45 45">
            <circle cx="22.5" cy="22.5" r="22.5" fill="#F4AE1A"/>
            <path d="M25.399 20.6039C26.2972 21.3658 26.4114 21.4717 26.8067 21.8121C27.0963 21.5637 27.3448 21.3377 28.3982 20.4543C30.3316 18.8309 31.7285 17.6587 31.7285 15.9272C31.7285 14.2857 30.5227 13 28.9834 13C27.9494 13 27.2633 13.5834 26.8325 14.1776C26.4246 13.5816 25.7613 13 24.7243 13C23.185 13 21.9797 14.2858 21.9797 15.9272C21.9797 17.7026 23.34 18.8567 25.399 20.6039Z" fill="white"/>
            <path d="M15.5192 30.7188C17.1311 29.6237 18.8948 29.2052 20.8143 29.5252L23.8905 30.0543C25.0718 30.2512 26.1545 30.1897 27.0897 29.882C29.0243 29.2373 30.961 27.2066 31.4743 26.4367C32.188 25.3662 32.5801 24.1973 32.8262 23.6313C33.06 23.0899 33.06 22.7084 32.8139 22.487C32.5309 22.2285 32.051 22.3639 31.6941 22.5608C31.1282 22.8807 30.5268 23.8036 29.9116 24.6895C29.1118 25.8461 27.7419 26.5352 26.3391 26.5352H21.8848V25.3047H23.7305C27.0035 25.3047 28.4678 24.6895 28.4678 24.0742C28.4678 23.5575 27.4465 23.3236 27.102 23.2498C25.7608 22.9422 22.7338 22.7946 20.6666 21.8717C20.2939 21.7086 19.8712 21.6171 19.424 21.6133C18.7227 21.6073 17.9605 21.8258 17.2336 22.3885C17.2214 22.3885 17.2214 22.3885 17.209 22.4008C16.7291 22.7699 16.0729 23.3113 15.187 24.0865C14.4363 24.7509 13.7104 25.6 12.443 26.6828L12 27.0643L15.027 31.051L15.5192 30.7188Z" fill="white"/>
        </symbol>
        <symbol id="00000000-0000-0000-0000-000000000010" viewBox="0 0 45 45">
            <circle cx="22.5" cy="22.5" r="22.5" fill="#518BC9"/>
            <path d="M23.1457 28.9837C23.0348 29.0907 22.8495 29.0114 22.8495 28.8574V23.2C22.8495 23.0067 23.0062 22.85 23.1995 22.85H25.5714C25.776 22.85 25.9368 23.0248 25.9205 23.2287C25.7398 25.483 24.7125 27.4731 23.1457 28.9837ZM21.7995 22.85H19.442C19.2339 22.85 19.0712 23.0306 19.0937 23.2374C19.3572 25.6645 20.7491 27.6307 21.8457 28.8343C21.9531 28.9522 22.1495 28.8754 22.1495 28.7159V23.2C22.1495 23.0067 21.9928 22.85 21.7995 22.85ZM19.426 22.15H21.7995C21.9928 22.15 22.1495 21.9933 22.1495 21.8V16.1678C22.1495 16.0132 21.9635 15.9344 21.8526 16.042C20.2333 17.6145 19.249 19.6031 19.0768 21.7721C19.0606 21.9757 19.2217 22.15 19.426 22.15ZM31.295 12.0001C29.9851 12.0149 29.1933 13.4654 29.8858 14.5747L27.263 17.1979C26.3872 16.41 25.3166 15.836 24.1327 15.5577C23.9634 15.5179 23.8444 15.7209 23.9638 15.8474C25.0379 16.9851 26.4317 18.9844 26.6259 21.8266C26.6384 22.0091 26.7919 22.15 26.9749 22.15H29.2444C29.4512 22.15 29.6141 21.9714 29.593 21.7656C29.4326 20.2039 28.7658 18.7897 27.76 17.6906L30.3719 15.0791C31.4804 15.8325 32.9994 15.0363 32.9995 13.6845C32.9996 12.7528 32.2266 11.9896 31.295 12.0001ZM22.8495 16.1412V21.8C22.8495 21.9933 23.0062 22.15 23.1995 22.15H25.5714C25.7761 22.15 25.9369 21.9752 25.9206 21.7713C25.7396 19.5089 24.7072 17.5208 23.1466 16.0158C23.0353 15.9084 22.8495 15.9865 22.8495 16.1412ZM30.3719 29.9209L27.7596 27.309C28.7657 26.2098 29.4326 24.796 29.593 23.2344C29.6141 23.0286 29.4512 22.85 29.2444 22.85H26.9749C26.7919 22.85 26.6384 22.9909 26.6259 23.1734C26.4313 26.0164 25.0366 28.0153 23.9621 29.1531C23.8427 29.2795 23.9617 29.4825 24.131 29.4427C25.3153 29.1644 26.3872 28.59 27.263 27.8021L29.8858 30.4253C29.1911 31.538 29.9889 32.9882 31.2992 32.9999C32.2292 33.0082 32.9996 32.2455 32.9995 31.3155C32.9994 29.9641 31.4809 29.1671 30.3719 29.9209ZM20.9 15.5503C19.682 15.8303 18.5826 16.4231 17.6905 17.2399L15.0787 14.6276C15.8321 13.5191 15.0358 12.0001 13.684 12C12.7523 12 11.9891 12.7729 11.9996 13.7045C12.0144 15.0144 13.465 15.8062 14.5742 15.1137L17.1975 17.7369C16.2146 18.8293 15.5643 20.2257 15.4061 21.7658C15.385 21.9715 15.5479 22.15 15.7547 22.15H18.022C18.2054 22.15 18.3586 22.0084 18.3709 21.8255C18.5256 19.5292 19.5156 17.4705 21.0676 15.8404C21.1875 15.7144 21.0693 15.5109 20.9 15.5503ZM21.2325 29.1986C20.0619 27.8862 18.6199 25.7763 18.3829 23.1663C18.3666 22.9868 18.215 22.85 18.0347 22.85H15.7546C15.5478 22.85 15.3849 23.0286 15.406 23.2344C15.5665 24.7964 16.2333 26.2102 17.2395 27.309L14.6272 29.9209C13.5186 29.1674 11.9996 29.9637 11.9995 31.3155C11.9995 32.2473 12.7725 33.0104 13.7041 32.9999C15.014 32.9851 15.8057 31.5345 15.1132 30.4253L17.7365 27.8021C18.6609 28.6342 19.8037 29.2279 21.0667 29.4864C21.2312 29.5201 21.3441 29.3241 21.2325 29.1986Z" fill="white"/>
        </symbol>
        <symbol id="00000000-0000-0000-0000-000000000011" viewBox="0 0 45 45">
            <circle cx="22.5" cy="22.5" r="22.5" fill="#27BEB6"/>
            <path d="M22.494 14.7427C17.9167 10.7391 12.0966 14.2568 12.0012 19.0255C11.9769 20.2408 12.3277 21.4246 13.026 22.516H17.5523L18.3574 21.1742C18.5912 20.7846 19.1569 20.772 19.4039 21.1604L21.1025 23.8296L23.5786 18.6026C23.7945 18.1465 24.438 18.132 24.6762 18.5743L26.7987 22.516H31.962C35.787 16.538 28.2277 9.72787 22.494 14.7427Z" fill="white"/>
            <path d="M25.8894 23.4229L24.1695 20.2289L21.7374 25.3632C21.5305 25.8 20.9219 25.838 20.6624 25.4301L18.9001 22.6609L18.428 23.4478C18.3168 23.6331 18.1166 23.7465 17.9005 23.7465H13.999C14.1213 23.8745 13.4695 23.224 22.0599 31.7699C22.2999 32.0086 22.6877 32.0087 22.9277 31.7699C31.3859 23.3554 30.8666 23.8742 30.9886 23.7465H26.4311C26.2047 23.7465 25.9967 23.6222 25.8894 23.4229Z" fill="white"/>
        </symbol>
        <symbol id="00000000-0000-0000-0000-000000000012" viewBox="0 0 45 45">
            <circle cx="22.5" cy="22.5" r="22.5" fill="#B856A1"/>
            <path d="M22.2683 12C20.1056 12.0046 18.3564 13.7538 18.3518 15.9074C18.3518 15.9892 18.3518 16.08 18.3609 16.1845C18.4518 17.4067 19.106 18.5199 20.1374 19.1878C20.1601 19.2059 20.1828 19.2332 20.201 19.2332H24.3537C24.381 19.2332 24.4173 19.1787 24.4537 19.1514C25.5396 18.4245 26.1893 17.2023 26.1847 15.8983C26.1802 13.7402 24.4264 11.9955 22.2683 12ZM23.5677 18.3245C22.6136 18.6925 21.5322 18.4608 20.8098 17.7339C20.6326 17.5658 20.4872 17.3658 20.3736 17.1478H19.9011C19.6512 17.1478 19.4468 16.9433 19.4468 16.6934C19.4468 16.4435 19.6467 16.2391 19.9011 16.2391H20.0738C20.0602 16.1482 20.0511 16.0573 20.0511 15.9665H19.9011C19.6512 15.9665 19.4468 15.762 19.4468 15.5121C19.4468 15.2622 19.6512 15.0578 19.9011 15.0578H20.1919C20.201 15.0305 20.2101 15.0078 20.2192 14.9805C20.7371 13.6493 22.2365 12.9859 23.5677 13.5039C23.7994 13.5948 23.9176 13.8583 23.8267 14.09C23.7358 14.3217 23.4723 14.4399 23.2406 14.349C22.6227 14.1082 21.9184 14.2536 21.4505 14.7215C21.346 14.826 21.2596 14.9669 21.1869 15.0578H23.2133C23.4632 15.0578 23.6677 15.2622 23.6677 15.5121C23.6677 15.762 23.4632 15.9665 23.2133 15.9665H20.9598C20.9643 16.0573 20.9779 16.1482 20.9961 16.2391H22.9816C23.2315 16.2391 23.4359 16.4435 23.4359 16.6934C23.4359 16.9433 23.2315 17.1478 22.9816 17.1478H21.5186C21.9866 17.6021 22.6499 17.6975 23.2406 17.4703C23.4723 17.384 23.7358 17.5021 23.8267 17.7339C23.9221 17.9701 23.804 18.2336 23.5677 18.3245Z" fill="white"/>
            <path d="M29.6742 24.0129V23.6994C29.6287 23.0633 29.4379 22.3682 29.1063 21.6821L28.7837 21.0596C28.1885 20.0783 27.3252 19.2241 26.2757 18.588C26.1257 18.8243 25.9485 19.0423 25.7486 19.2377H26.2211C26.471 19.2377 26.6755 19.4422 26.6755 19.6921C26.6755 19.9419 26.471 20.1464 26.2211 20.1464H18.3473C18.0974 20.1464 17.893 19.9419 17.893 19.6921C17.893 19.4422 18.0974 19.2377 18.3473 19.2377H18.7789C18.0747 18.5062 17.6204 17.5703 17.4841 16.5616C16.8389 16.3526 16.489 16.3208 16.3073 16.3253C16.3028 16.3253 16.2937 16.3253 16.2891 16.3253C16.28 16.498 16.3482 17.1295 16.3891 17.4794L16.5072 18.5698C16.5118 18.588 16.5118 18.6016 16.5118 18.6198C16.5163 18.7652 16.4618 18.906 16.3573 19.0105C16.3436 19.0242 16.33 19.0333 16.3164 19.0469C15.4213 19.7375 14.7307 20.5644 14.2673 21.4913C14.2446 21.5367 14.2173 21.5731 14.181 21.6094C14.0946 21.7048 13.981 21.7639 13.8584 21.7866L12.3908 22.0819C12.1591 22.1274 11.9955 22.3318 12.0001 22.5635V25.4941C12.0001 25.7258 12.1637 25.9302 12.3908 25.9757L13.8538 26.271C13.9765 26.2937 14.0901 26.3528 14.1764 26.4482C14.2128 26.4845 14.24 26.5254 14.2627 26.5709C14.5399 27.1433 14.8988 27.6749 15.3259 28.1429C15.3804 28.202 15.4168 28.2747 15.435 28.3565C15.4713 28.4882 15.4531 28.6291 15.385 28.7426C14.9533 29.6195 15.1851 30.6782 15.9393 31.2961C16.4118 31.6732 17.0115 31.8686 17.6158 31.8368C18.2337 31.8095 18.8198 31.5687 19.2742 31.1461L19.7194 30.7236C19.8239 30.6236 19.9602 30.5691 20.1056 30.5737C20.1329 30.5737 20.1556 30.5737 20.1829 30.5782C21.3687 30.7781 22.5773 30.7418 23.745 30.4646C23.7813 30.4555 23.8131 30.451 23.8495 30.451C23.9903 30.4464 24.1312 30.501 24.2357 30.6009L24.8263 31.1643C25.2806 31.5914 25.8804 31.8231 26.5028 31.8186H26.5892C27.248 31.8186 27.8568 31.5278 28.3066 31.0598C29.0154 30.3101 29.0517 29.147 28.3929 28.2883C28.3748 28.2656 28.3611 28.2429 28.3475 28.2156C28.2066 27.9339 28.3248 27.7249 28.402 27.634C29.2335 26.5572 29.6742 25.3078 29.6742 24.0129ZM17.3841 24.0629C16.7435 24.0629 16.221 23.5449 16.221 22.8997C16.221 22.2591 16.7389 21.7366 17.3841 21.7366C18.0293 21.7366 18.5518 22.2591 18.5472 22.8997C18.5472 23.5404 18.0247 24.0629 17.3841 24.0629Z" fill="white"/>
            <path d="M32.1686 16.816C31.9914 16.6388 31.7051 16.6388 31.5279 16.816C31.3507 16.9932 31.3507 17.2794 31.5279 17.4566C32.264 18.2108 32.2549 19.4194 31.5007 20.1555C30.7601 20.8824 29.5697 20.8824 28.8291 20.1555C28.82 20.1464 28.8155 20.1418 28.8064 20.1373L29.597 21.5685C29.7878 21.6094 29.9832 21.6275 30.1831 21.6275C31.7369 21.6275 33 20.369 33 18.8106C32.9955 18.0655 32.7001 17.3476 32.1686 16.816Z" fill="white"/>
        </symbol>
    </defs>
</svg>
